<svg width="358" height="16" viewBox="0 0 358 16" fill="none" xmlns="http://www.w3.org/2000/svg">
<rect y="10" width="1" height="6" fill="#2C343C"/>
<rect x="6.69043" y="10" width="1" height="6" fill="#2C343C"/>
<rect x="13.3809" y="10" width="1" height="6" fill="#2C343C"/>
<rect x="20.0715" y="4" width="1" height="12" fill="#2C343C"/>
<rect x="26.762" y="10" width="1" height="6" fill="#2C343C"/>
<rect x="33.4524" y="10" width="1" height="6" fill="#2C343C"/>
<rect x="41.1428" y="10" width="1" height="6" fill="#2C343C"/>
<rect x="50.75" y="10" width="1" height="6" fill="#2C343C"/>
<rect x="60.3572" y="10" width="1" height="6" fill="#2C343C"/>
<rect x="69.9644" y="4" width="1" height="12" fill="#2C343C"/>
<rect x="79.5713" y="10" width="1" height="6" fill="#2C343C"/>
<rect x="89.1785" y="10" width="1" height="6" fill="#2C343C"/>
<rect x="99.7856" y="10" width="1" height="6" fill="#2C343C"/>
<rect x="109.393" y="10" width="1" height="6" fill="#2C343C"/>
<rect x="119" y="10" width="1" height="6" fill="#2C343C"/>
<rect x="128.607" y="4" width="1" height="12" fill="#2C343C"/>
<rect x="138.214" y="10" width="1" height="6" fill="#2C343C"/>
<rect x="147.821" y="10" width="1" height="6" fill="#2C343C"/>
<rect x="158.428" y="10" width="1" height="6" fill="#2C343C"/>
<rect x="165.119" y="10" width="1" height="6" fill="#2C343C"/>
<rect x="171.809" y="10" width="1" height="6" fill="#2C343C"/>
<rect x="178.5" width="1" height="16" fill="#2C343C"/>
<rect x="185.19" y="10" width="1" height="6" fill="#2C343C"/>
<rect x="191.881" y="10" width="1" height="6" fill="#2C343C"/>
<rect x="199.572" y="10" width="1" height="6" fill="#2C343C"/>
<rect x="209.179" y="10" width="1" height="6" fill="#2C343C"/>
<rect x="218.786" y="10" width="1" height="6" fill="#2C343C"/>
<rect x="228.393" y="4" width="1" height="12" fill="#2C343C"/>
<rect x="238" y="10" width="1" height="6" fill="#2C343C"/>
<rect x="247.607" y="10" width="1" height="6" fill="#2C343C"/>
<rect x="258.214" y="10" width="1" height="6" fill="#2C343C"/>
<rect x="267.822" y="10" width="1" height="6" fill="#2C343C"/>
<rect x="277.429" y="10" width="1" height="6" fill="#2C343C"/>
<rect x="287.036" y="4" width="1" height="12" fill="#2C343C"/>
<rect x="296.643" y="10" width="1" height="6" fill="#2C343C"/>
<rect x="306.25" y="10" width="1" height="6" fill="#2C343C"/>
<rect x="316.857" y="10" width="1" height="6" fill="#2C343C"/>
<rect x="323.548" y="10" width="1" height="6" fill="#2C343C"/>
<rect x="330.238" y="10" width="1" height="6" fill="#2C343C"/>
<rect x="336.929" y="4" width="1" height="12" fill="#2C343C"/>
<rect x="343.619" y="10" width="1" height="6" fill="#2C343C"/>
<rect x="350.31" y="10" width="1" height="6" fill="#2C343C"/>
<rect x="357" y="10" width="1" height="6" fill="#2C343C"/>
</svg>
