<svg width="40" height="40" viewBox="0 0 40 40" fill="none" xmlns="http://www.w3.org/2000/svg">
<path d="M11.6668 10.0009C9.63243 10.007 8.50654 10.0556 7.58138 10.4439C6.2855 10.9879 5.23018 11.9926 4.61367 13.2693C4.11046 14.3115 4.02812 15.6467 3.86343 18.3171L3.60535 22.5016C3.1958 29.1423 2.99103 32.4626 4.93964 34.5646C6.88825 36.6666 10.171 36.6666 16.7366 36.6666H23.2637C29.8293 36.6666 33.1121 36.6666 35.0607 34.5646C37.0093 32.4626 36.8045 29.1423 36.395 22.5016L36.1369 18.3171C35.9722 15.6467 35.8899 14.3115 35.3867 13.2693C34.7701 11.9926 33.7148 10.9879 32.4189 10.4439C31.4938 10.0556 30.3679 10.007 28.3335 10.0009" stroke="#809198" stroke-width="1.5" stroke-linecap="round"/>
<path d="M28.3332 11.6666L26.8568 7.9757C26.2198 6.38325 25.6655 4.57682 24.0276 3.7659C23.1538 3.33331 22.1025 3.33331 19.9998 3.33331C17.8972 3.33331 16.8458 3.33331 15.9721 3.7659C14.3342 4.57682 13.7799 6.38325 13.1429 7.9757L11.6665 11.6666" stroke="#809198" stroke-width="1.5" stroke-linecap="round" stroke-linejoin="round"/>
<path d="M25.8332 23.3333C25.8332 26.555 23.2215 29.1667 19.9998 29.1667C16.7782 29.1667 14.1665 26.555 14.1665 23.3333C14.1665 20.1117 16.7782 17.5 19.9998 17.5C23.2215 17.5 25.8332 20.1117 25.8332 23.3333Z" stroke="#809198" stroke-width="1.5"/>
<path d="M19.9997 10H20.0146" stroke="#809198" stroke-width="2" stroke-linecap="round" stroke-linejoin="round"/>
</svg>
