<svg width="33" height="32" viewBox="0 0 33 32" fill="none" xmlns="http://www.w3.org/2000/svg">
<path fill-rule="evenodd" clip-rule="evenodd" d="M16.5397 24.5682C18.5587 24.5591 20.4078 23.8539 21.8718 22.6772L24.8582 26.3908C22.5713 28.229 19.6626 29.3334 16.5 29.3334C9.13713 29.3334 3.16663 23.3643 3.16663 16.0031C3.16663 8.6447 9.12823 2.66669 16.5 2.66669C23.8699 2.66669 29.8333 8.63668 29.8333 15.9969H25.2701C25.2701 15.9969 25.2702 15.9969 25.2701 15.9969C20.6626 16.3558 16.9839 19.987 16.5397 24.5682ZM16.4599 7.43181C11.7522 7.45338 7.94581 11.2713 7.9328 15.9789C12.4429 15.531 16.0195 11.9427 16.4599 7.43181ZM7.93278 16.0151C7.93924 20.7259 11.7521 24.547 16.4605 24.5682C16.0228 20.0549 12.445 16.4688 7.93278 16.0151ZM25.0671 15.9787C25.0573 11.2702 21.2516 7.45352 16.5404 7.43181C16.981 11.9369 20.5574 15.525 25.0671 15.9787Z" fill="#64E2F3"/>
</svg>
