<svg width="18" height="18" viewBox="0 0 18 18" fill="none" xmlns="http://www.w3.org/2000/svg">
<g clip-path="url(#clip0_4186_2785)">
<path fill-rule="evenodd" clip-rule="evenodd" d="M9.02877 14.7849C10.3916 14.7787 11.6397 14.3026 12.6279 13.5081L14.6437 16.0154C13.1001 17.2565 11.1367 18.0021 9.00195 18.0021C4.03205 18.0021 0.00195312 13.972 0.00195312 9.00211C0.00195312 4.03399 4.02604 -0.00211024 9.00195 -0.00211024C13.9767 -0.00211024 18.002 4.02858 18.002 8.99789H14.9218C14.9218 8.99789 14.9218 8.99789 14.9218 8.99789C11.8118 9.24023 9.3286 11.6918 9.02877 14.7849ZM8.97488 3.2151C5.79725 3.22967 3.22791 5.80737 3.21912 8.98576C6.26346 8.68335 8.67765 6.26065 8.97488 3.2151ZM3.21911 9.01021C3.22347 12.1907 5.79712 14.7705 8.97528 14.7849C8.67986 11.7377 6.26484 9.3165 3.21911 9.01021ZM14.7848 8.98557C14.7782 5.80659 12.2093 3.22976 9.02923 3.2151C9.32667 6.25672 11.7407 8.67925 14.7848 8.98557Z" fill="#C57032"/>
</g>
<defs>
<clipPath id="clip0_4186_2785">
<rect width="18" height="18" fill="white"/>
</clipPath>
</defs>
</svg>
