<svg width="48" height="48" viewBox="0 0 48 48" fill="none" xmlns="http://www.w3.org/2000/svg">
<g clip-path="url(#clip0_4198_2129)">
<path d="M46 24.0221C46 36.1856 36.1518 46.0221 24 46.0221C11.8482 46.0221 2 36.1856 2 24.0221C2 11.8587 11.8482 2.00096 24 2.00096C27.6138 2.00096 31.0269 2.87885 34.0173 4.45481L31.2805 9.66923L30.5937 10.9702C29.8223 10.5788 29.0086 10.251 28.1633 9.99711C26.8425 9.59519 25.4371 9.38365 23.9894 9.38365C15.927 9.38365 9.36503 15.9519 9.36503 24.0221C9.36503 32.0923 15.927 38.6394 23.9894 38.6394C32.0519 38.6394 38.5927 32.0923 38.5927 24.0221C38.5927 23.2077 38.5293 22.4038 38.4025 21.6529L45.6936 20.3836C45.8838 21.5683 45.9894 22.7952 45.9894 24.0221H46Z" fill="#64E2F3"/>
<path d="M31.1114 24.0221C31.1114 27.9567 27.9097 31.151 23.9894 31.151C20.0692 31.151 16.8674 27.9673 16.8674 24.0221C16.8674 20.0769 20.048 16.8933 23.9894 16.8933C25.1095 16.8933 26.1662 17.1471 27.1066 17.6442L23.683 24.1913L31.0163 22.9221C31.0797 23.2711 31.1009 23.6308 31.1009 24.0221H31.1114Z" fill="#64E2F3"/>
<path d="M39.1316 16.9779C41.3084 16.9779 43.073 15.2116 43.073 13.0327C43.073 10.8538 41.3084 9.08749 39.1316 9.08749C36.9548 9.08749 35.1902 10.8538 35.1902 13.0327C35.1902 15.2116 36.9548 16.9779 39.1316 16.9779Z" fill="#64E2F3"/>
</g>
<defs>
<clipPath id="clip0_4198_2129">
<rect width="44" height="44.0211" fill="white" transform="translate(2 2.00096)"/>
</clipPath>
</defs>
</svg>
