<?xml version="1.0" encoding="UTF-8"?>
<svg id="Layer_1" data-name="Layer 1" xmlns="http://www.w3.org/2000/svg" version="1.1" viewBox="0 0 255.6 255.2">
  <defs>
    <style>
      .cls-1 {
        fill: currentColor;
        stroke-width: 0px;
      }
    </style>
  </defs>
  <path class="cls-1" d="M115.9,0h23.7c30.9,2.9,60.5,17.3,81.6,40.1,20.7,22.1,33.2,51.7,34.2,82,1.2,26.2-6,52.7-20.3,74.7-15.6,24.2-39.6,42.8-66.9,51.9-23.4,7.8-48.9,8.6-72.8,2.4-29.4-7.6-55.8-26.2-72.9-51.2C6.6,177-1.3,148.8.2,121c1.3-31.6,15.1-62.3,37.7-84.5C58.6,15.8,86.7,2.8,115.9,0ZM114.8,19.7c-34.5,4-66.2,25.7-82.5,56.3-12,22-15.7,48.3-10.7,72.8,4.8,24.5,18.6,47.1,38.1,62.7,18.9,15.4,43.2,24.1,67.7,24,22.6.3,45.1-7,63.4-20.2,21.4-15.2,37-38.6,42.7-64.3,4.9-22,2.9-45.6-6-66.4-10.2-24.2-29.7-44.2-53.4-55.5-18.3-8.8-39.2-11.9-59.3-9.6Z"/>
  <path class="cls-1" d="M106.1,100c7.2-20.3,14.5-40.6,21.7-60.9,7.3,20.3,14.5,40.6,21.7,60.9,21.9.1,43.8,0,65.8,0-14.5,11.8-29.1,23.6-43.5,35.4-14.7-10.7-29.3-21.4-44-32.1-14.6,10.8-29.2,21.3-43.8,32-14.5-11.8-29-23.6-43.6-35.4,21.9,0,43.8,0,65.7,0Z"/>
  <path class="cls-1" d="M127.8,116.8c11.9,9.3,24.1,18.2,35.9,27.6,2.4,7.7,4.7,15.4,7.1,23.2-14.3-11-28.6-21.9-42.9-32.8-14.4,10.9-28.6,21.9-43,32.8,2.4-7.7,4.7-15.4,7-23.1,11.9-9.3,24-18.2,35.9-27.6Z"/>
  <path class="cls-1" d="M127.8,149.2c15.6,11.9,31.1,23.8,46.7,35.6.8.7,2,1.3,2.3,2.5,2.3,7.5,4.5,15,6.8,22.4-18.6-14.2-37.2-28.4-55.8-42.6-18.6,14.2-37.2,28.4-55.8,42.7,2.3-7.7,4.8-15.4,7-23.2,16.2-12.5,32.5-24.8,48.8-37.4Z"/>
</svg>