<svg width="40" height="40" viewBox="0 0 40 40" fill="none" xmlns="http://www.w3.org/2000/svg">
<path d="M18.6518 18.75L15.7862 21.5944L17.5474 23.3687L18.7502 22.1749V28.75H16.6668V31.25H23.3335V28.75H21.2502V18.75H18.6518Z" fill="#32BCC5"/>
<path fill-rule="evenodd" clip-rule="evenodd" d="M20.0325 6.16643L18.542 2.82422L16.2587 3.84246L18.6942 9.30369L17.4271 12.2742C16.7546 12.3947 16.1011 12.5706 15.4711 12.7971L11.1471 2.83562L8.8538 3.83106L13.216 13.8806C9.53434 16.1377 7.0835 20.2899 7.0835 25C7.0835 32.0904 12.6375 37.9167 19.5835 37.9167H20.4168C27.3628 37.9167 32.9168 32.0904 32.9168 25C32.9168 20.2899 30.466 16.1377 26.7843 13.8806L31.1465 3.83106L28.8532 2.83562L24.5292 12.7971C23.2434 12.3349 21.8602 12.0833 20.4168 12.0833H20.2265L23.7497 3.82378L21.4502 2.84289L20.0325 6.16643ZM9.5835 25C9.5835 19.2038 14.1031 14.5833 19.5835 14.5833H20.4168C25.8972 14.5833 30.4168 19.2038 30.4168 25C30.4168 30.7962 25.8972 35.4167 20.4168 35.4167H19.5835C14.1031 35.4167 9.5835 30.7962 9.5835 25Z" fill="#32BCC5"/>
</svg>
