<svg width="32" height="32" viewBox="0 0 32 32" fill="none" xmlns="http://www.w3.org/2000/svg">
<path d="M16.0001 20.336L16.0001 23.1219C15.1659 22.8271 14.2685 22.6667 13.3334 22.6667C8.91513 22.6667 5.33341 26.2484 5.33341 30.6667H2.66675C2.66675 24.7756 7.44237 20 13.3334 20C14.2542 20 15.1478 20.1167 16.0001 20.336ZM13.3334 18.6667C8.91341 18.6667 5.33341 15.0867 5.33341 10.6667C5.33341 6.24667 8.91341 2.66667 13.3334 2.66667C17.7534 2.66667 21.3334 6.24667 21.3334 10.6667C21.3334 15.0867 17.7534 18.6667 13.3334 18.6667ZM13.3334 16C16.2801 16 18.6667 13.6133 18.6667 10.6667C18.6667 7.72001 16.2801 5.33334 13.3334 5.33334C10.3867 5.33334 8.00008 7.72001 8.00008 10.6667C8.00008 13.6133 10.3867 16 13.3334 16ZM21.3334 24V20H24.0001V24L28.0001 24L28.0001 26.6667L24.0001 26.6667V30.6667H21.3334V26.6667H17.3334V24H21.3334Z" fill="#32BCC5"/>
</svg>
