<?xml version="1.0" encoding="UTF-8"?>
<svg id="Layer_1" data-name="Layer 1" xmlns="http://www.w3.org/2000/svg" version="1.1" viewBox="0 0 255.6 255.7">
  <defs>
    <style>
      .cls-1 {
        fill: currentColor;
        stroke-width: 0px;
      }
    </style>
  </defs>
  <path class="cls-1" d="M104.3,2.2c27.1-5.2,55.9-1.1,80.6,11.2,26.5,13.1,48.1,35.8,60,62.9,11.4,25.7,13.8,55.1,7,82.3-6.9,28.5-24.2,54.3-47.8,71.7-21.2,16-47.6,24.8-74.1,25.3h-4.1c-34.7-.5-68.8-15.7-92.1-41.3C14.5,193.5,2.4,166.1.4,137.8c-2.6-30.5,6.4-61.8,24.8-86.2C44.2,26,73,7.9,104.3,2.2ZM112.9,20.5c-28.9,3.9-55.9,20.1-72.9,43.8-14.8,20.1-22.1,45.6-20.4,70.4,1.3,22.6,10.1,44.6,24.5,62,16.9,20.6,41.7,34.6,68.1,38.3,25.4,3.8,52.1-1.9,73.6-15.8,20.7-13.1,36.7-33.4,44.5-56.6,8.2-24.1,7.6-51.2-1.9-74.8-9.7-24.5-28.7-45.3-52.4-56.9-19.4-9.8-41.7-13.4-63.2-10.4Z"/>
  <path class="cls-1" d="M95,35.3c9.8,28,31.9,51,59.1,62.8,4.5,2.2,9.6,3.2,13.8,6.1,6.6,4.3,12.5,9.6,17.4,15.8,2.9,3.8,5.9,8.3,5.1,13.4-3.1-1.7-6-4.7-9.9-4.1-6.7,4-10.8,11.7-11.3,19.4-.8,8.8,2.1,17.4,6.1,25.1.3.9,1.5,2.1.3,2.8-6.9,6.4-14.3,12.4-21.4,18.7-9.6-22.1-6.9-47.6.9-69.7.9-2.2-1.9-3.2-3.1-4.5-14.1-10.3-28.5-20.6-39.9-34-8.2-9.6-14.9-20.9-17.1-33.5-1-6-.9-12.2,0-18.3Z"/>
  <path class="cls-1" d="M77,46.2c4.2,21.6,18,40.2,34.4,54.3,11.9,10.1,25.3,18.2,39.4,24.7-8.8,22.9-9.6,49.2,0,72-11,9.8-22.9,18.7-34.4,27.9-.6-4.1-1.6-8.2-2.1-12.3,5.6-5.8,11.1-11.6,16.7-17.4-13.8-6.9-26.6-15.8-37.1-27.1-10.9-11.5-19-26.5-19.5-42.7,2.9,6.1,7.1,11.5,11.7,16.5,12.4,13.2,28.4,22.6,45.2,29.1,0-2.5-.2-5-.2-7.5-19.6-7.7-38.6-19.3-50.5-37-7.4-10.8-10.3-24.3-8.6-37.3,6.1,18.2,20.3,32.4,36.1,42.7,7.7,4.9,15.8,9,24.3,12.4,0-2,.1-4,.2-6-20.8-9.4-40.7-23.5-51.8-43.9-8.1-14.7-8.8-32.6-3.6-48.3Z"/>
</svg>