<svg width="24" height="24" viewBox="0 0 24 24" fill="none" xmlns="http://www.w3.org/2000/svg">
<path fill-rule="evenodd" clip-rule="evenodd" d="M13.2027 4.59755C14.9291 2.80082 17.741 2.80082 19.4674 4.59755C21.1775 6.37741 21.1775 9.25119 19.4674 11.0311L16.228 14.4025C15.9602 14.6811 15.665 14.9177 15.3503 15.1111C13.6476 16.1577 11.4179 15.9162 9.96335 14.4025C9.73064 14.1603 9.52943 13.8975 9.3599 13.6198C9.14403 13.2663 9.25562 12.8047 9.60914 12.5889C9.96266 12.373 10.4242 12.4846 10.6401 12.8381C10.7538 13.0244 10.8887 13.2006 11.045 13.3632C12.0055 14.3629 13.4568 14.5143 14.5649 13.8332C14.7709 13.7065 14.9667 13.5502 15.1464 13.3632L18.3857 9.99178C19.5381 8.79249 19.5381 6.83611 18.3857 5.63682C17.2496 4.45439 15.4205 4.45439 14.2844 5.63682L13.5708 6.37942C13.2838 6.6781 12.8091 6.68758 12.5104 6.4006C12.2117 6.11361 12.2022 5.63883 12.4892 5.34015L13.2027 4.59755ZM7.77206 9.59754C9.49845 7.80082 12.3104 7.80082 14.0368 9.59754C14.2694 9.83967 14.4706 10.1024 14.6401 10.3799C14.856 10.7334 14.7444 11.195 14.3909 11.4109C14.0374 11.6268 13.5758 11.5152 13.3599 11.1617C13.2462 10.9756 13.1113 10.7994 12.9551 10.6368C11.819 9.45439 9.98982 9.45439 8.85368 10.6368L5.61426 14.0082C4.46191 15.2075 4.46191 17.1639 5.61426 18.3632C6.7504 19.5456 8.57957 19.5456 9.71571 18.3632L10.4295 17.6203C10.7165 17.3216 11.1913 17.3122 11.4899 17.5991C11.7886 17.8861 11.7981 18.3609 11.5111 18.6596L10.7973 19.4025C9.07094 21.1992 6.25903 21.1992 4.53264 19.4025C2.82245 17.6226 2.82245 14.7488 4.53264 12.9689L7.77206 9.59754Z" fill="currentColor"/>
</svg>
