<svg width="82" height="82" viewBox="0 0 82 82" fill="none" xmlns="http://www.w3.org/2000/svg">
<path d="M68.3333 33.6666H65.4167V30.75C65.4167 17.265 54.485 6.33331 41 6.33331C27.5151 6.33331 16.5833 17.265 16.5833 30.75V33.6666H13.6667C11.5036 33.6666 9.75 35.4201 9.75 37.5833V71.75C9.75 73.9131 11.5036 75.6666 13.6667 75.6666H68.3333C70.4965 75.6666 72.25 73.9131 72.25 71.75V37.5833C72.25 35.4201 70.4965 33.6666 68.3333 33.6666ZM57.5833 30.75V33.6666H24.4167V30.75C24.4167 21.5913 31.8413 14.1666 41 14.1666C50.1586 14.1666 57.5833 21.5913 57.5833 30.75ZM43.9167 61H38.0833V48.3333H43.9167V61Z" fill="#1E7176" fill-opacity="0.56" stroke="#32BCC5"/>
</svg>
