<svg width="25" height="24" viewBox="0 0 25 24" fill="none" xmlns="http://www.w3.org/2000/svg">
<path fill-rule="evenodd" clip-rule="evenodd" d="M12.75 4.75C11.2312 4.75 10 5.98122 10 7.5C10 9.01878 11.2312 10.25 12.75 10.25C14.2688 10.25 15.5 9.01878 15.5 7.5C15.5 5.98122 14.2688 4.75 12.75 4.75ZM8.5 7.5C8.5 5.15279 10.4028 3.25 12.75 3.25C15.0972 3.25 17 5.15279 17 7.5C17 9.84721 15.0972 11.75 12.75 11.75C10.4028 11.75 8.5 9.84721 8.5 7.5ZM4.49998 8C4.49998 6.20507 5.95506 4.75 7.74998 4.75V6.25C6.78348 6.25 5.99998 7.0335 5.99998 8C5.99998 8.9665 6.78348 9.75 7.74998 9.75V11.25C5.95506 11.25 4.49998 9.79493 4.49998 8ZM19.5 8C19.5 7.0335 18.7165 6.25 17.75 6.25V4.75C19.5449 4.75 21 6.20507 21 8C21 9.79493 19.5449 11.25 17.75 11.25V9.75C18.7165 9.75 19.5 8.9665 19.5 8ZM2 18C2 14.8244 4.57436 12.25 7.75 12.25V13.75C5.40279 13.75 3.5 15.6528 3.5 18H2ZM22 18C22 15.6528 20.0972 13.75 17.75 13.75V12.25C20.9256 12.25 23.5 14.8244 23.5 18H22ZM6.56483 19.25H18.9352C18.506 16.78 15.9914 14.75 12.75 14.75C9.50862 14.75 6.99399 16.78 6.56483 19.25ZM5 20C5 16.1678 8.58242 13.25 12.75 13.25C16.9176 13.25 20.5 16.1678 20.5 20V20.75H5V20Z" fill="currentColor"/>
</svg>
