<svg width="25" height="24" viewBox="0 0 25 24" fill="none" xmlns="http://www.w3.org/2000/svg">
<path d="M15.4808 1.92129C15.519 1.61164 15.5381 1.45681 15.4492 1.35564C15.3603 1.25448 15.2052 1.25362 14.8952 1.2519C14.55 1.24999 14.1873 1.25 13.8066 1.25L10.69 1.25C10.3103 1.25 9.94849 1.24999 9.60412 1.25189C9.29579 1.25359 9.14163 1.25444 9.05274 1.3549C8.96385 1.45536 8.98189 1.60943 9.01798 1.91759L9.07305 2.38786C9.1743 2.99518 9.24096 3.38484 9.32601 3.67052C9.40593 3.93895 9.47732 4.02428 9.53397 4.07226C9.59061 4.12025 9.68651 4.17665 9.96443 4.21134C10.2631 4.24864 10.6633 4.25 11.2894 4.25L13.2067 4.25C13.8328 4.25 14.233 4.24864 14.5317 4.21134C14.8096 4.17665 14.9055 4.12025 14.9621 4.07226C15.0188 4.02428 15.0902 3.93895 15.1701 3.67053C15.2553 3.38447 15.322 2.99418 15.4235 2.38553L15.4808 1.92129Z" fill="currentColor"/>
<path fill-rule="evenodd" clip-rule="evenodd" d="M7.35748 1.40966C7.45683 1.4868 7.47296 1.62456 7.50522 1.90006L7.5851 2.58219L7.58985 2.61071C7.68179 3.16263 7.77429 3.71794 7.88812 4.10029C8.01288 4.51935 8.20118 4.91107 8.56416 5.21856C8.92713 5.52604 9.34447 5.64738 9.77834 5.70155C10.181 5.75183 10.6759 5.7518 11.2449 5.75177L13.2507 5.75177C13.8197 5.7518 14.3146 5.75183 14.7173 5.70155C15.1511 5.64738 15.5685 5.52604 15.9315 5.21856C16.2944 4.91107 16.4827 4.51935 16.6075 4.10029C16.7218 3.71642 16.814 3.16261 16.9063 2.60865L16.91 2.58688L16.9952 1.89694C17.029 1.62309 17.0459 1.48617 17.1451 1.40968C17.2443 1.33319 17.3756 1.35093 17.6384 1.38642L17.6936 1.39405C18.7371 1.54173 19.5934 1.85554 20.2667 2.56428C20.9348 3.26761 21.226 4.15293 21.3639 5.23259C21.4981 6.28338 21.4981 7.62531 21.498 9.31665V14.6869C21.4981 16.3782 21.4981 17.7202 21.3639 18.7709C21.226 19.8506 20.9348 20.7359 20.2667 21.4392C19.5934 22.148 18.7371 22.4618 17.6936 22.6095C16.6879 22.7518 15.4068 22.7518 13.8064 22.7518H10.6897C9.08933 22.7518 7.80815 22.7518 6.8025 22.6095C5.75898 22.4618 4.90273 22.148 4.22943 21.4392C3.56127 20.7359 3.27013 19.8506 3.13223 18.7709C2.99802 17.7202 2.99803 16.3782 2.99805 14.6869L2.99805 9.31663C2.99803 7.62531 2.99802 6.28337 3.13223 5.23259C3.27013 4.15293 3.56127 3.26761 4.22943 2.56428C4.90273 1.85554 5.75898 1.54173 6.8025 1.39405L6.86187 1.38586C7.12605 1.3503 7.25813 1.33252 7.35748 1.40966ZM13 11C13 10.5858 13.3358 10.25 13.75 10.25L17.25 10.25C17.6642 10.25 18 10.5858 18 11C18 11.4142 17.6642 11.75 17.25 11.75L13.75 11.75C13.3358 11.75 13 11.4142 13 11ZM11.5004 10.7072C11.8908 10.5689 12.0953 10.1403 11.957 9.74982C11.8187 9.35937 11.3901 9.15495 10.9996 9.29323C10.5175 9.46399 10.0699 9.78384 9.69115 10.116C9.30461 10.455 8.94626 10.8457 8.64468 11.2073C8.49853 11.3825 8.36354 11.5534 8.24285 11.7119C8.15464 11.6294 8.06624 11.5596 7.97853 11.5012C7.8196 11.3952 7.67054 11.3314 7.54198 11.2947L7.51948 11.2881C7.45749 11.2696 7.37309 11.2445 7.25 11.2502C6.83579 11.2502 6.5 11.586 6.5 12.0002C6.5 12.3749 6.77481 12.6855 7.13388 12.7413C7.13745 12.7434 7.14166 12.746 7.14648 12.7492C7.20217 12.7864 7.37367 12.9246 7.57918 13.3356C7.70006 13.5774 7.94169 13.7354 8.21165 13.7492C8.48153 13.763 8.73825 13.6302 8.88322 13.4021C8.9261 13.3377 9.05181 13.1492 9.13295 13.0343C9.29576 12.8036 9.526 12.4924 9.7965 12.1681C10.0684 11.8422 10.3719 11.5142 10.6802 11.2438C10.9963 10.9666 11.2766 10.7864 11.5004 10.7072ZM13 17C13 16.5858 13.3358 16.25 13.75 16.25L17.25 16.25C17.6642 16.25 18 16.5858 18 17C18 17.4142 17.6642 17.75 17.25 17.75H13.75C13.3358 17.75 13 17.4142 13 17ZM8.25 16C7.69772 16 7.25 16.4477 7.25 17C7.25 17.5523 7.69772 18 8.25 18H9.25C9.80229 18 10.25 17.5523 10.25 17C10.25 16.4477 9.80229 16 9.25 16H8.25Z" fill="currentColor"/>
</svg>
