<svg width="25" height="24" viewBox="0 0 25 24" fill="none" xmlns="http://www.w3.org/2000/svg">
<path d="M23.2649 1.5095C23.0455 1.28081 22.5615 1.25003 22.5615 1.25003V1.25003C21.0402 1.25 20.1908 1.24998 19.3738 1.37759C18.1126 1.57457 16.9005 1.99612 15.794 2.61889C15.3861 2.84843 15.1822 2.9632 15.2077 3.10341C15.2332 3.24362 15.4801 3.28157 15.9738 3.35746C17.496 3.59142 18.7543 4.19138 19.6913 5.15169C20.614 6.09734 21.17 7.33586 21.3924 8.77583C21.4687 9.26954 21.5068 9.5164 21.647 9.54186C21.7871 9.56731 21.9019 9.36338 22.1314 8.9555C22.754 7.8491 23.1755 6.63722 23.3724 5.37623C23.5 4.55918 23.5 3.70978 23.5 2.18856V2.18856C23.5 2.18856 23.4781 1.7318 23.2649 1.5095Z" fill="currentColor"/>
<path d="M20.0004 11.4767C20.0004 11.5578 20.0004 11.5984 19.9854 11.635C19.9703 11.6716 19.9418 11.7003 19.8849 11.7576C19.7036 11.9405 19.5058 12.1382 19.2887 12.3553L17.5363 14.1077C17.4755 14.1685 17.4451 14.1989 17.4298 14.238C17.4146 14.2772 17.4164 14.3197 17.42 14.4049C17.4281 14.5956 17.4384 14.8011 17.4482 14.9951C17.4711 15.4482 17.4955 15.9308 17.4994 16.4123C17.5073 17.3867 17.4343 18.4434 17.0452 19.3827C16.7517 20.0914 16.278 20.677 15.8014 21.1751C15.5617 21.4257 15.3119 21.6634 15.0753 21.8862C14.874 22.0755 14.5801 22.3519 14.4016 22.5304C14.2256 22.7063 13.9738 22.7836 13.7294 22.7365C13.4851 22.6894 13.2799 22.5242 13.1819 22.2955L11.8247 19.1287C11.8096 19.0935 11.8021 19.0759 11.7922 19.0609C11.7676 19.0237 11.7313 18.9959 11.6891 18.9817C11.6721 18.9759 11.6531 18.9732 11.6152 18.9676C11.6003 18.9655 11.5928 18.9644 11.5858 18.9639C11.568 18.9625 11.5524 18.9633 11.5348 18.9666C11.528 18.9678 11.5202 18.9698 11.5045 18.9738C11.2608 19.0362 10.5488 19.2033 10.3952 19.234C10.2027 19.2725 10.0116 19.3105 9.84316 19.3276C9.66402 19.3459 9.45699 19.3474 9.236 19.2805C9.01501 19.2135 8.84359 19.0975 8.70465 18.9829C8.574 18.8752 8.43609 18.7376 8.29723 18.5988L6.15123 16.4528C6.01237 16.3139 5.8748 16.176 5.76709 16.0454C5.65255 15.9064 5.53647 15.735 5.46956 15.514C5.40265 15.293 5.40415 15.086 5.42238 14.9069C5.43953 14.7384 5.4775 14.5474 5.51601 14.3548C5.54672 14.2012 5.71386 13.4892 5.7762 13.2455C5.78021 13.2299 5.78221 13.222 5.78346 13.2152C5.78668 13.1976 5.7875 13.182 5.78616 13.1642C5.78563 13.1572 5.78454 13.1498 5.78236 13.1348C5.77684 13.0969 5.77407 13.078 5.76833 13.0609C5.75413 13.0187 5.72627 12.9824 5.68914 12.9579C5.67412 12.9479 5.65651 12.9404 5.62131 12.9253L2.45454 11.5681C2.2258 11.4701 2.06058 11.2649 2.01351 11.0206C1.96645 10.7762 2.04367 10.5244 2.21965 10.3484C2.39817 10.1699 2.6745 9.87604 2.8638 9.6747C3.08662 9.43808 3.32435 9.1883 3.57487 8.94861C4.07302 8.47197 4.65858 7.99836 5.36727 7.70481C6.30659 7.31573 7.3633 7.24268 8.33766 7.25058C8.81925 7.25448 9.30174 7.27888 9.75482 7.3018C9.94882 7.3116 10.1544 7.3219 10.3451 7.32999C10.4303 7.3336 10.4728 7.33541 10.512 7.32017C10.5511 7.30492 10.5815 7.27451 10.6423 7.21369L12.3948 5.46126C12.6116 5.24437 12.8092 5.04679 12.9919 4.86555C13.0493 4.80863 13.078 4.78017 13.1146 4.7651C13.1512 4.75003 13.1917 4.75003 13.2729 4.75003L14.7391 4.75003C15.9039 4.78592 16.8486 5.02946 17.5964 5.43363C17.7834 5.5347 17.8769 5.58523 17.8914 5.68456C17.9059 5.78389 17.826 5.86377 17.6663 6.02354L16.7201 6.9697C16.4272 7.26259 16.4272 7.73747 16.7201 8.03036C17.013 8.32325 17.4879 8.32325 17.7808 8.03036L18.7258 7.0853C18.8857 6.92538 18.9657 6.84542 19.0651 6.85996C19.1644 6.8745 19.215 6.96816 19.3161 7.15548C19.727 7.91708 19.9652 8.8683 20.0004 10.0114V11.4767Z" fill="currentColor"/>
<path fill-rule="evenodd" clip-rule="evenodd" d="M5.4571 11.2929C5.84762 11.6834 5.84762 12.3166 5.4571 12.7071L4.4571 13.7071C4.06658 14.0976 3.43341 14.0976 3.04289 13.7071C2.65236 13.3166 2.65236 12.6834 3.04289 12.2929L4.04289 11.2929C4.43341 10.9024 5.06658 10.9024 5.4571 11.2929ZM13.4571 19.2929C13.8476 19.6834 13.8476 20.3166 13.4571 20.7071L12.4571 21.7071C12.0666 22.0976 11.4334 22.0976 11.0429 21.7071C10.6524 21.3166 10.6524 20.6834 11.0429 20.2929L12.0429 19.2929C12.4334 18.9024 13.0666 18.9024 13.4571 19.2929Z" fill="currentColor"/>
</svg>
