<svg width="25" height="24" viewBox="0 0 25 24" fill="none" xmlns="http://www.w3.org/2000/svg">
<path fill-rule="evenodd" clip-rule="evenodd" d="M8.25594 2.25L16.245 2.25L19.4398 9.70456C19.5237 9.90013 19.5205 10.1221 19.431 10.3152C19.3416 10.5083 19.1744 10.6543 18.971 10.7168L13.1638 12.5036L14.3849 14.2729L16.9608 15.0269C17.1989 15.0966 17.3871 15.2795 17.4636 15.5155C17.54 15.7515 17.4949 16.01 17.343 16.2061L15.7072 18.3172L15.781 20.9792C15.7878 21.2262 15.6725 21.4608 15.4728 21.6062C15.2731 21.7517 15.0145 21.7895 14.7815 21.7072L12.2501 20.8133L9.71868 21.7072C9.48568 21.7895 9.22711 21.7517 9.02738 21.6062C8.82765 21.4608 8.71239 21.2262 8.71923 20.9792L8.79296 18.3172L7.15723 16.2061C7.0053 16.01 6.96015 15.7515 7.03663 15.5155C7.11311 15.2795 7.30132 15.0966 7.53939 15.0269L10.1153 14.2729L11.3364 12.5035L5.52991 10.7168C5.32655 10.6543 5.15934 10.5082 5.06992 10.3152C4.98051 10.1221 4.97731 9.90013 5.06113 9.70456L8.25594 2.25ZM12.7177 11.0714L14.294 10.5864L11.7303 3.75L10.1337 3.75L12.7177 11.0714ZM8.86004 4.64832L11.0472 10.8451L6.76851 9.52855L8.86004 4.64832ZM13.3323 3.75L15.7303 10.1445L17.7325 9.52853L15.2559 3.75L13.3323 3.75ZM12.2501 13.8204L11.0475 15.5629L9.01702 16.1573L10.3072 17.8225L10.2489 19.9292L12.2501 19.2225L14.2513 19.9292L14.193 17.8225L15.4832 16.1573L13.4527 15.5629L12.2501 13.8204Z" fill="currentColor"/>
</svg>
