<svg width="25" height="24" viewBox="0 0 25 24" fill="none" xmlns="http://www.w3.org/2000/svg">
<path fill-rule="evenodd" clip-rule="evenodd" d="M12.4995 2C12.7021 2 12.8962 2.08201 13.0374 2.22736C14.6533 3.89045 17.5069 7.31729 17.6444 13.757L18.458 14.1257C18.7472 12.4162 19.4157 11.3273 20.0414 10.6936L20.5751 10.1532L21.1087 10.6936C21.7294 11.3221 22.6627 12.7699 23.0592 14.4936C23.4632 16.25 23.3238 18.3819 21.6322 20.2018L21.2743 20.5868L16.9543 18.7571L16.211 20.9872C16.1089 21.2934 15.8223 21.5 15.4995 21.5H9.49948C9.17666 21.5 8.89005 21.2934 8.78797 20.9872L8.04462 18.7571L3.72462 20.5868L3.36677 20.2018C1.67519 18.3819 1.5358 16.25 1.93979 14.4936C2.33627 12.7699 3.26958 11.3221 3.89022 10.6936L4.42388 10.1532L4.95754 10.6936C5.5833 11.3273 6.25175 12.4162 6.54091 14.1257L7.35454 13.757C7.49202 7.31729 10.3457 3.89045 11.9616 2.22736C12.1028 2.08201 12.2968 2 12.4995 2ZM6.6782 15.7104C6.68504 16.1083 6.68824 16.5892 6.68824 16.75H5.18824C5.18824 16.4779 5.17959 15.491 5.16598 15.2819C5.07992 13.9604 4.75746 13.0538 4.41452 12.4536C4.03445 13.0424 3.61959 13.8822 3.40161 14.8299C3.10629 16.1138 3.18383 17.5235 4.13335 18.7847L8.95434 16.7429L10.04 20H14.9589L16.0446 16.7429L20.8656 18.7847C21.8151 17.5235 21.8927 16.1138 21.5973 14.8299C21.3794 13.8822 20.9645 13.0424 20.5844 12.4536C20.2415 13.0538 19.919 13.9604 19.833 15.2819C19.8194 15.491 19.8107 16.4779 19.8107 16.75H18.3107C18.3107 16.5892 18.3139 16.1083 18.3208 15.7104L16.1496 14.7263V14.2428C16.1496 8.70505 14.021 5.55953 12.4995 3.84961C10.978 5.55953 8.84939 8.70505 8.84939 14.2428V14.7263L6.6782 15.7104ZM5.24948 2.75L5.24948 4.75L3.74948 4.75L3.74948 2.75L5.24948 2.75ZM21.2495 2.75V4.75L19.7495 4.75V2.75L21.2495 2.75ZM5.24948 6.75V8.75H3.74948L3.74948 6.75H5.24948ZM21.2495 6.75V8.75H19.7495V6.75H21.2495ZM11.7495 11.25V9.25H13.2495V11.25L11.7495 11.25Z" fill="currentColor"/>
</svg>
