<svg width="24" height="24" viewBox="0 0 24 24" fill="none" xmlns="http://www.w3.org/2000/svg">
<path fill-rule="evenodd" clip-rule="evenodd" d="M11.5717 1.38554C11.8299 1.20481 12.1736 1.20482 12.4318 1.38558L22.4318 8.38558C22.6741 8.55515 22.7941 8.85125 22.7382 9.14164L20.2381 22.1416C20.1702 22.4948 19.8612 22.75 19.5016 22.75H4.50164C4.14207 22.75 3.83309 22.4948 3.76515 22.1417L1.26354 9.14172C1.20765 8.85129 1.32767 8.55513 1.56998 8.38554L11.5717 1.38554ZM2.82839 9.33569L5.12107 21.25H8.24977L8.25312 15.25H15.7493V21.25H18.8821L21.1734 9.33568L12.0017 2.91547L2.82839 9.33569ZM14.2493 21.25V16.75H9.75228L9.74977 21.25H14.2493Z" fill="currentColor"/>
</svg>
