<svg width="25" height="24" viewBox="0 0 25 24" fill="none" xmlns="http://www.w3.org/2000/svg">
<path fill-rule="evenodd" clip-rule="evenodd" d="M16.248 11.75L8.24805 11.75L8.24805 10.25L16.248 10.25V11.75ZM12.248 16.75H8.24805V15.25H12.248V16.75Z" fill="currentColor"/>
<path fill-rule="evenodd" clip-rule="evenodd" d="M3 3.5C3 3.08579 3.33579 2.75 3.75 2.75L8.25 2.75V4.25L4.5 4.25L4.5 21.25L20 21.25L20 4.25H16.25V2.75L20.75 2.75C21.1642 2.75 21.5 3.08579 21.5 3.5L21.5 22C21.5 22.1989 21.421 22.3897 21.2803 22.5303C21.1397 22.671 20.9489 22.75 20.75 22.75L3.75 22.75C3.33579 22.75 3 22.4142 3 22L3 3.5Z" fill="currentColor"/>
<path fill-rule="evenodd" clip-rule="evenodd" d="M7.72043 1.46967C7.86108 1.32902 8.05185 1.25 8.25076 1.25L16.2508 1.25C16.665 1.25 17.0008 1.58579 17.0008 2V5C17.0008 5.41421 16.665 5.75 16.2508 5.75L8.25076 5.75C7.83655 5.75 7.50076 5.41421 7.50076 5L7.50076 2C7.50076 1.80109 7.57978 1.61032 7.72043 1.46967ZM9.00076 2.75L9.00076 4.25L15.5008 4.25V2.75L9.00076 2.75Z" fill="currentColor"/>
</svg>
