<svg width="25" height="24" viewBox="0 0 25 24" fill="none" xmlns="http://www.w3.org/2000/svg">
<g clip-path="url(#clip0_1_233)">
<path d="M8.25337 13.1474C7.96627 13.3013 7.68491 13.4624 7.47814 13.5903C6.98354 13.8795 6.05191 14.4241 5.37889 15.1082C4.94456 15.5497 4.3736 16.2837 4.26733 17.2933C4.23451 17.6051 4.24934 17.9036 4.30304 18.1871C4.35678 18.4709 4.38366 18.6128 4.31186 18.6872C4.24006 18.7616 4.12042 18.7434 3.88114 18.707C2.85732 18.5512 2.16543 17.9931 1.59764 17.3845C1.17308 16.9295 0.953787 16.4061 1.00817 15.8464C1.05924 15.3208 1.34019 14.8976 1.62118 14.5882C2.06466 14.0998 2.71834 13.686 3.10981 13.4381C3.19345 13.3852 3.26514 13.3398 3.32023 13.3029C4.79765 12.3132 6.5597 12.0212 8.20505 12.427C8.59296 12.5226 8.78691 12.5704 8.80406 12.7068C8.8212 12.8431 8.63193 12.9445 8.25337 13.1474Z" fill="currentColor"/>
<path d="M7.23741 5.28631C7.42712 5.31484 7.52197 5.3291 7.5707 5.4079C7.61944 5.48671 7.58547 5.59136 7.51754 5.80068C7.34386 6.33583 7.25 6.90695 7.25 7.5C7.25 8.73995 7.66032 9.88407 8.35259 10.804C8.48465 10.9795 8.55068 11.0672 8.53033 11.1575C8.50999 11.2478 8.42509 11.2922 8.2553 11.3811C7.80526 11.6167 7.2932 11.75 6.75 11.75C4.95507 11.75 3.5 10.2949 3.5 8.5C3.5 6.70507 4.95507 5.25 6.75 5.25C6.91566 5.25 7.07842 5.26239 7.23741 5.28631Z" fill="currentColor"/>
<path d="M17.2471 13.1474C17.5342 13.3013 17.8155 13.4624 18.0223 13.5903C18.5169 13.8795 19.4485 14.4241 20.1215 15.1082C20.5559 15.5497 21.1268 16.2837 21.2331 17.2933C21.2659 17.6051 21.2511 17.9036 21.1974 18.1871C21.1437 18.4709 21.1168 18.6128 21.1886 18.6872C21.2604 18.7616 21.38 18.7434 21.6193 18.707C22.6431 18.5512 23.335 17.9931 23.9028 17.3845C24.3274 16.9295 24.5467 16.4061 24.4923 15.8464C24.4412 15.3208 24.1602 14.8976 23.8793 14.5882C23.4358 14.0998 22.7821 13.686 22.3906 13.4381C22.307 13.3852 22.2353 13.3398 22.1802 13.3029C20.7028 12.3132 18.9407 12.0212 17.2954 12.427C16.9075 12.5226 16.7135 12.5704 16.6964 12.7068C16.6792 12.8431 16.8685 12.9445 17.2471 13.1474Z" fill="currentColor"/>
<path d="M17.1478 10.804C17.0157 10.9795 16.9497 11.0672 16.97 11.1575C16.9904 11.2478 17.0753 11.2922 17.245 11.3811C17.6951 11.6167 18.2072 11.75 18.7503 11.75C20.5453 11.75 22.0003 10.2949 22.0003 8.5C22.0003 6.70507 20.5453 5.25 18.7503 5.25C18.5847 5.25 18.4219 5.26239 18.2629 5.28631C18.0732 5.31484 17.9784 5.3291 17.9296 5.4079C17.8809 5.48671 17.9149 5.59136 17.9828 5.80068C18.1565 6.33583 18.2503 6.90695 18.2503 7.5C18.2503 8.73995 17.84 9.88407 17.1478 10.804Z" fill="currentColor"/>
<path d="M8.44146 14.4733C11.0792 12.8422 14.425 12.8422 17.0627 14.4733C17.1405 14.5214 17.239 14.579 17.3522 14.6452C17.8645 14.945 18.6776 15.4208 19.2325 15.9849C19.5811 16.3391 19.9287 16.8221 19.992 17.4242C20.0599 18.0683 19.7864 18.6646 19.2649 19.1806C18.4033 20.033 17.3359 20.75 15.9365 20.75H9.56773C8.16827 20.75 7.10094 20.033 6.23932 19.1806C5.71775 18.6646 5.44435 18.0683 5.51215 17.4242C5.57553 16.8221 5.92313 16.3391 6.27165 15.9849C6.82655 15.4208 7.63974 14.945 8.15201 14.6452C8.26518 14.579 8.3637 14.5214 8.44146 14.4733Z" fill="currentColor"/>
<path d="M8.5018 7.5C8.5018 5.15279 10.4046 3.25 12.7518 3.25C15.099 3.25 17.0018 5.15279 17.0018 7.5C17.0018 9.84721 15.099 11.75 12.7518 11.75C10.4046 11.75 8.5018 9.84721 8.5018 7.5Z" fill="currentColor"/>
</g>
<defs>
<clipPath id="clip0_1_233">
<rect width="24" height="24" fill="white" transform="translate(0.75)"/>
</clipPath>
</defs>
</svg>
