<svg width="21" height="20" viewBox="0 0 21 20" fill="none" xmlns="http://www.w3.org/2000/svg">
<path opacity="0.35" d="M16.3629 6.94091L13.4166 3.99463L5.00773 12.4033L5.00404 12.4072L4.97304 12.4382C4.30638 13.1048 3.93 13.4812 3.63704 13.9165C3.3772 14.3026 3.16821 14.7206 3.01523 15.1601C2.84274 15.6557 2.76749 16.1826 2.63419 17.1159L2.58769 17.4414C2.56855 17.5754 2.61568 17.7103 2.71408 17.8033C2.81249 17.8962 2.9499 17.9356 3.08258 17.9088L3.53279 17.8179C4.37132 17.6488 4.8448 17.5533 5.28942 17.3783C5.68389 17.223 6.05877 17.0219 6.40636 16.7793C6.79814 16.5057 7.13966 16.1642 7.74453 15.5593L16.3629 6.94091Z" fill="#809198"/>
<path d="M17.6606 2.6968C16.847 1.88321 15.5279 1.88321 14.7143 2.6968L13.4165 3.99467L16.3627 6.94095L17.6606 5.64308C18.4742 4.82949 18.4742 3.51039 17.6606 2.6968Z" fill="#809198"/>
<path d="M11.2767 16.25C10.8477 16.25 10.5 16.6231 10.5 17.0834C10.5 17.5436 10.8477 17.9167 11.2767 17.9167H17.49C17.9189 17.9167 18.2667 17.5436 18.2667 17.0834C18.2667 16.6231 17.9189 16.25 17.49 16.25H11.2767Z" fill="#809198"/>
</svg>
