<svg width="56" height="56" viewBox="0 0 56 56" fill="none" xmlns="http://www.w3.org/2000/svg">
<path d="M8 56V48H0L8 56Z" fill="#144B4F"/>
<rect width="8" height="48" transform="matrix(1 0 0 -1 0 48)" fill="#144B4F"/>
<rect width="40" height="56" transform="translate(8)" fill="#144B4F"/>
<path d="M37.8347 28.5548L23.7032 37.9757C23.3969 38.18 22.9829 38.0972 22.7787 37.7909C22.7057 37.6813 22.6667 37.5527 22.6667 37.4211V18.5791C22.6667 18.2109 22.9652 17.9124 23.3334 17.9124C23.465 17.9124 23.5937 17.9514 23.7032 18.0244L37.8347 27.4453C38.141 27.6496 38.2238 28.0636 38.0195 28.3699C37.9707 28.4431 37.9079 28.506 37.8347 28.5548Z" fill="#84D7DC"/>
<path d="M48 0V8H56L48 0Z" fill="#144B4F"/>
<rect width="8" height="48" transform="matrix(-1 0 0 1 56 8)" fill="#144B4F"/>
</svg>
