<?xml version="1.0" encoding="UTF-8"?>
<svg id="_Шар_2" data-name="Шар 2" xmlns="http://www.w3.org/2000/svg" viewBox="0 0 39.21 39.21">
  <defs>
    <style>
      .cls-1 {
        fill: #5bc9d1;
        stroke-width: 0px;
      }
    </style>
  </defs>
  <g id="_Шар_3" data-name="Шар 3">
    <g>
      <path class="cls-1" d="m27.23,19.61c0,4.21-3.42,7.63-7.63,7.63s-7.63-3.42-7.63-7.63,3.42-7.64,7.63-7.64,7.63,3.43,7.63,7.64Z"/>
      <path class="cls-1" d="m0,0v39.12h31.45l7.71.09.05-8.59V0H0Zm19.6,34.24c-8.07,0-14.63-6.57-14.63-14.63s6.56-14.64,14.63-14.64,14.63,6.57,14.63,14.64-6.56,14.63-14.63,14.63Zm14.42-25.49c-1.98,0-3.58-1.61-3.58-3.59s1.6-3.58,3.58-3.58,3.58,1.61,3.58,3.58-1.6,3.59-3.58,3.59Z"/>
    </g>
  </g>
</svg>