<?xml version="1.0" encoding="UTF-8"?>
<svg id="_Шар_2" data-name="Шар 2" xmlns="http://www.w3.org/2000/svg" viewBox="0 0 38.66 39.26">
  <defs>
    <style>
      .cls-1 {
        fill: #fff;
      }

      .cls-1, .cls-2 {
        stroke-width: 0px;
      }

      .cls-2 {
        fill: #5bc9d1;
      }
    </style>
  </defs>
  <g id="_Шар_2-2" data-name="Шар 2">
    <g>
      <path class="cls-2" d="m38.66.05v30.62l-.04,8.59-7.61-.09H0v-14.36c0,5.5,2.71,9.7,7.64,12.57,3.63,2.1,7.63,1.79,11.58,1.69.04,0,.08-.06.12-.09v-8.82h-.93c-1.38,0-2.77.05-4.15-.02-2.22-.1-3.89-1.2-4.81-3.23-.98-2.16-.65-4.22.91-6.03,1.13-1.32,2.62-1.88,4.33-1.88h4.66v-8.94c-1.64,0-3.27-.11-4.88.03-1.66.15-3.39.29-4.93.88C3.96,13.11.6,17.26.07,23.26c-.05.53-.07,1.05-.07,1.55V.05h19.56c-.27.1-.37.34-.36.84.05,2.38.02,4.75.02,7.13,0,.29.02.58.04.94,1.73,0,3.38-.03,5.03,0,2.91.06,5.22,2.34,5.4,5.29.18,2.82-1.94,5.46-4.79,5.77-1.55.18-3.14.09-4.71.12-.31.01-.62.03-.95.04v8.87c2.77-.12,5.5.31,8.15-.41,1.35-.37,2.71-.83,3.92-1.52,5.38-3.03,8.14-8.99,7.13-15.12-.96-5.8-5.6-10.65-11.51-11.69-1.11-.19-2.24-.24-3.39-.26h15.12Z"/>
      <path class="cls-1" d="m23.54.05h-3.98c.14-.05.32-.06.56-.05,1.13.06,2.28.04,3.42.05Z"/>
    </g>
  </g>
</svg>