<svg width="33" height="32" viewBox="0 0 33 32" fill="none" xmlns="http://www.w3.org/2000/svg">
<path d="M14.5131 30H1.68972V16.9079H14.5131V30Z" fill="#64E2F3"/>
<path d="M18.2075 2H27.7258C27.7716 3.07542 27.8174 4.04954 27.8632 5.2029H30.9927V11.749H27.8937C27.8327 12.9335 27.7792 13.9466 27.7258 15.0999H18.2075V2Z" fill="#64E2F3"/>
<path d="M1.66675 14.9986V2.04676H17.6044C12.2079 6.42639 7.04037 10.6268 1.66675 14.9986Z" fill="#64E2F3"/>
<path d="M27.7484 17.6794C27.7866 18.334 27.8324 19.199 27.8858 20.1731H31.0001V26.6569C30.0383 26.7114 29.0384 26.766 27.8782 26.8283C27.8324 27.8726 27.779 28.8856 27.7332 29.9767H15.4288C19.5811 25.8308 23.6877 21.7395 27.7637 17.6794H27.7484Z" fill="#64E2F3"/>
</svg>
