<svg width="25" height="24" viewBox="0 0 25 24" fill="none" xmlns="http://www.w3.org/2000/svg">
<path d="M18.5836 6.3354C19.1767 6.1202 19.4711 6.04275 19.6342 6.01505C19.6354 6.0672 19.6342 6.10948 19.6315 6.13722C19.3989 8.58114 18.3799 14.5938 17.8565 17.3916C17.734 18.0468 17.64 18.3587 17.0072 17.987C16.5907 17.7422 16.2138 17.4342 15.81 17.1695C14.4854 16.3011 12.5893 15.0079 12.745 15.0857C11.4409 14.2263 11.9868 13.7001 12.7148 12.9983C12.8327 12.8847 12.9553 12.7665 13.0756 12.6415C13.1293 12.5857 13.392 12.3414 13.7624 11.9971C14.9505 10.8925 17.2464 8.75799 17.3044 8.51098C17.3139 8.47046 17.3227 8.31942 17.2329 8.23965C17.1432 8.15989 17.0108 8.18717 16.9152 8.20886C16.7797 8.2396 14.6219 9.66587 10.4417 12.4876C9.82919 12.9082 9.27442 13.1132 8.77736 13.1024L8.78182 13.1046C8.12707 12.8737 7.47415 12.6749 6.8178 12.475C6.38661 12.3436 5.95394 12.2118 5.51829 12.0702C5.41174 12.0356 5.30779 12.0027 5.21008 11.972C9.73706 9.99987 12.7523 8.7014 14.2632 8.07297C16.4577 7.16021 17.7594 6.63448 18.5836 6.3354ZM21.0062 4.40703C20.7528 4.20141 20.4743 4.10704 20.2808 4.06082C20.081 4.01309 19.8911 3.99773 19.7471 4.00027C19.2707 4.00866 18.759 4.14415 17.9014 4.45534C17.0266 4.77279 15.6823 5.3166 13.4951 6.22633C11.9531 6.86771 8.88313 8.19012 4.2929 10.19C3.88971 10.3512 3.52012 10.5341 3.22809 10.7509C2.95844 10.9512 2.58099 11.3095 2.51194 11.8604C2.45977 12.2764 2.58108 12.6604 2.82708 12.9628C3.04124 13.226 3.31561 13.3859 3.52455 13.4871C3.83471 13.6373 4.25201 13.7681 4.61877 13.8831C5.1919 14.0627 5.7637 14.2462 6.33805 14.422C8.11617 14.9663 9.57991 15.4143 11.1905 16.4756C12.3718 17.2541 13.5303 18.0665 14.7136 18.8421C15.1452 19.125 15.5486 19.4497 15.9942 19.7114C16.4809 19.9974 17.0997 20.2582 17.8529 20.1888C18.9912 20.0841 19.5834 19.0369 19.8224 17.7593C20.3445 14.9686 21.3802 8.87248 21.6225 6.32671C21.6541 5.99441 21.6171 5.62197 21.5863 5.44215C21.5546 5.25697 21.4577 4.77345 21.0062 4.40703Z" fill="currentColor"/>
</svg>
