<svg width="32" height="32" viewBox="0 0 32 32" fill="none" xmlns="http://www.w3.org/2000/svg">
<path d="M24.1115 8.44719C24.9023 8.16026 25.2948 8.05699 25.5123 8.02006C25.5139 8.08959 25.5123 8.14596 25.5087 8.18295C25.1986 11.4415 23.8399 19.4583 23.142 23.1887C22.9787 24.0623 22.8534 24.4782 22.0096 23.9826C21.4543 23.6562 20.9518 23.2455 20.4134 22.8926C18.6472 21.7347 16.1191 20.0105 16.3267 20.1142C14.5879 18.9683 15.3158 18.2667 16.2864 17.331C16.4436 17.1795 16.6071 17.0219 16.7675 16.8553C16.8391 16.7809 17.1894 16.4551 17.6832 15.9961C19.2674 14.5233 22.3286 11.6773 22.4059 11.348C22.4186 11.2939 22.4303 11.0925 22.3106 10.9862C22.191 10.8798 22.0144 10.9162 21.887 10.9451C21.7063 10.9861 18.8292 12.8878 13.2557 16.6501C12.439 17.2109 11.6993 17.4842 11.0366 17.4698L11.0425 17.4727C10.1695 17.1649 9.29895 16.8998 8.42382 16.6333C7.8489 16.4581 7.27201 16.2823 6.69114 16.0935C6.54907 16.0474 6.41046 16.0035 6.28019 15.9626C12.3162 13.3331 16.3364 11.6019 18.351 10.7639C21.277 9.54693 23.0126 8.84596 24.1115 8.44719ZM27.3416 5.87603C27.0038 5.60187 26.6324 5.47604 26.3744 5.41442C26.108 5.35078 25.8548 5.3303 25.6628 5.33368C25.0276 5.34487 24.3454 5.52552 23.2019 5.94044C22.0355 6.36371 20.2431 7.08879 17.3268 8.30176C15.2708 9.15694 11.1776 10.9201 5.05729 13.5866C4.5197 13.8015 4.0269 14.0454 3.63754 14.3345C3.27801 14.6015 2.77473 15.0793 2.68266 15.8138C2.61311 16.3685 2.77485 16.8805 3.10285 17.2837C3.38839 17.6346 3.75422 17.8478 4.03281 17.9827C4.44635 18.183 5.00277 18.3574 5.49178 18.5107C6.25594 18.7502 7.01834 18.9949 7.78414 19.2293C10.155 19.955 12.1066 20.5523 14.254 21.9674C15.8291 23.0054 17.3738 24.0886 18.9515 25.1227C19.527 25.4999 20.0648 25.9329 20.659 26.2818C21.3079 26.6631 22.133 27.0109 23.1372 26.9183C24.655 26.7787 25.4446 25.3825 25.7632 23.679C26.4594 19.9581 27.8403 11.83 28.1634 8.4356C28.2055 7.99254 28.1562 7.49595 28.1151 7.25619C28.0728 7.00928 27.9436 6.36459 27.3416 5.87603Z" fill="#32BCC5"/>
</svg>
