<svg width="40" height="40" viewBox="0 0 40 40" fill="none" xmlns="http://www.w3.org/2000/svg">
<path fill-rule="evenodd" clip-rule="evenodd" d="M21.0082 2.59416C20.7727 2.27305 20.3984 2.08333 20.0002 2.08333C19.602 2.08333 19.2276 2.27305 18.9921 2.59417L16.468 6.03645L12.1681 7.22111C11.7598 7.3336 11.4363 7.64518 11.3085 8.04893C11.1806 8.45269 11.2659 8.89371 11.5351 9.22068L14.2369 12.5026L14.1154 16.6299C14.1034 17.0378 14.2913 17.4259 14.6187 17.6695C14.9462 17.9131 15.3719 17.9816 15.7591 17.8529L20.0002 16.4433L24.2412 17.8529C24.6285 17.9816 25.0542 17.9131 25.3816 17.6695C25.709 17.4259 25.8969 17.0378 25.8849 16.6299L25.7634 12.5026L28.4652 9.22068C28.7344 8.89371 28.8197 8.45269 28.6919 8.04893C28.564 7.64518 28.2405 7.3336 27.8322 7.22111L23.5323 6.03645L21.0082 2.59416ZM20.0002 5.4472L22.0303 8.21577L25.3104 9.11947L23.2369 11.6382L23.3334 14.9167L20.0002 13.8089L16.6669 14.9167L16.7634 11.6382L14.69 9.11947L17.97 8.21577L20.0002 5.4472Z" fill="#32BCC5"/>
<path fill-rule="evenodd" clip-rule="evenodd" d="M15.0002 20.4167C14.3098 20.4167 13.7502 20.9763 13.7502 21.6667V23.75H5.8335C5.14314 23.75 4.5835 24.3096 4.5835 25V35.4167H3.3335V37.9167H36.6668V35.4167H35.4168V28.3333C35.4168 27.643 34.8572 27.0833 34.1668 27.0833H26.2502V21.6667C26.2502 20.9763 25.6905 20.4167 25.0002 20.4167H15.0002ZM13.7502 35.4167H7.0835V26.25H13.7502V35.4167ZM23.7502 35.4167H16.2502V22.9167H23.7502V35.4167ZM32.9168 35.4167H26.2502V29.5833H32.9168V35.4167Z" fill="#32BCC5"/>
</svg>
