<svg width="316" height="441" viewBox="0 0 316 441" fill="none" xmlns="http://www.w3.org/2000/svg">
<g clip-path="url(#clip0_0_1898)">
<g opacity="0.15">
<path d="M8.52563 0.323547H315.609" stroke="#D8F3FF" stroke-width="0.771273" stroke-miterlimit="10"/>
<path d="M8.52588 19.4825H315.609" stroke="#D8F3FF" stroke-width="0.771273" stroke-miterlimit="10"/>
<path d="M8.52588 38.6415H315.609" stroke="#D8F3FF" stroke-width="0.771273" stroke-miterlimit="10"/>
<path d="M8.52588 57.8004H315.609" stroke="#D8F3FF" stroke-width="0.771273" stroke-miterlimit="10"/>
<path d="M8.52588 76.9595H315.609" stroke="#D8F3FF" stroke-width="0.771273" stroke-miterlimit="10"/>
<path d="M8.52588 96.1183H315.609" stroke="#D8F3FF" stroke-width="0.771273" stroke-miterlimit="10"/>
<path d="M8.52588 115.277H315.609" stroke="#D8F3FF" stroke-width="0.771273" stroke-miterlimit="10"/>
<path d="M8.52588 134.436H315.609" stroke="#D8F3FF" stroke-width="0.771273" stroke-miterlimit="10"/>
<path d="M8.52588 153.595H315.609" stroke="#D8F3FF" stroke-width="0.771273" stroke-miterlimit="10"/>
<path d="M8.52588 172.754H315.609" stroke="#D8F3FF" stroke-width="0.771273" stroke-miterlimit="10"/>
<path d="M8.52588 191.913H315.609" stroke="#D8F3FF" stroke-width="0.771273" stroke-miterlimit="10"/>
<path d="M8.52588 211.072H315.609" stroke="#D8F3FF" stroke-width="0.771273" stroke-miterlimit="10"/>
<path d="M8.52588 230.231H315.609" stroke="#D8F3FF" stroke-width="0.771273" stroke-miterlimit="10"/>
<path d="M8.52588 249.39H315.609" stroke="#D8F3FF" stroke-width="0.771273" stroke-miterlimit="10"/>
<path d="M8.52588 268.549H315.609" stroke="#D8F3FF" stroke-width="0.771273" stroke-miterlimit="10"/>
<path d="M8.52588 287.708H315.609" stroke="#D8F3FF" stroke-width="0.771273" stroke-miterlimit="10"/>
<path d="M8.52588 306.867H315.609" stroke="#D8F3FF" stroke-width="0.771273" stroke-miterlimit="10"/>
<path d="M8.52588 326.026H315.609" stroke="#D8F3FF" stroke-width="0.771273" stroke-miterlimit="10"/>
<path d="M8.52588 345.184H315.609" stroke="#D8F3FF" stroke-width="0.771273" stroke-miterlimit="10"/>
<path d="M8.52588 364.344H315.609" stroke="#D8F3FF" stroke-width="0.771273" stroke-miterlimit="10"/>
<path d="M8.52588 383.502H315.609" stroke="#D8F3FF" stroke-width="0.771273" stroke-miterlimit="10"/>
<path d="M8.52588 402.661H315.609" stroke="#D8F3FF" stroke-width="0.771273" stroke-miterlimit="10"/>
<path d="M8.52588 421.82H315.609" stroke="#D8F3FF" stroke-width="0.771273" stroke-miterlimit="10"/>
<path d="M8.52588 440.979H315.609" stroke="#D8F3FF" stroke-width="0.771273" stroke-miterlimit="10"/>
<path d="M21.4133 -10.4266V498.448" stroke="#D8F3FF" stroke-width="0.771273" stroke-miterlimit="10"/>
<path d="M42.3989 -10.4266V498.448" stroke="#D8F3FF" stroke-width="0.771273" stroke-miterlimit="10"/>
<path d="M63.3848 -10.4266V498.448" stroke="#D8F3FF" stroke-width="0.771273" stroke-miterlimit="10"/>
<path d="M84.3704 -10.4266V498.448" stroke="#D8F3FF" stroke-width="0.771273" stroke-miterlimit="10"/>
<path d="M105.357 -10.4266V498.448" stroke="#D8F3FF" stroke-width="0.771273" stroke-miterlimit="10"/>
<path d="M126.342 -10.4266V498.448" stroke="#D8F3FF" stroke-width="0.771273" stroke-miterlimit="10"/>
<path d="M147.328 -10.4266V498.448" stroke="#D8F3FF" stroke-width="0.771273" stroke-miterlimit="10"/>
<path d="M168.313 -10.4266V498.448" stroke="#D8F3FF" stroke-width="0.771273" stroke-miterlimit="10"/>
<path d="M189.3 -10.4266V498.448" stroke="#D8F3FF" stroke-width="0.771273" stroke-miterlimit="10"/>
<path d="M210.286 -10.4266V498.448" stroke="#D8F3FF" stroke-width="0.771273" stroke-miterlimit="10"/>
<path d="M231.271 -10.4266V498.448" stroke="#D8F3FF" stroke-width="0.771273" stroke-miterlimit="10"/>
<path d="M252.257 -10.4266V498.448" stroke="#D8F3FF" stroke-width="0.771273" stroke-miterlimit="10"/>
<path d="M273.243 -10.4266V498.448" stroke="#D8F3FF" stroke-width="0.771273" stroke-miterlimit="10"/>
<path d="M294.229 -10.4266V498.448" stroke="#D8F3FF" stroke-width="0.771273" stroke-miterlimit="10"/>
<path d="M315.215 -10.4266V498.448" stroke="#D8F3FF" stroke-width="0.771273" stroke-miterlimit="10"/>
<path d="M0.42749 498.456V-18.8353" stroke="#D8F3FF" stroke-width="1.54255" stroke-miterlimit="10" stroke-linecap="square"/>
<path d="M0.42749 0.323547H10.9204" stroke="#D8F3FF" stroke-width="0.771273" stroke-miterlimit="10"/>
<path d="M0.42749 4.15546H5.67394" stroke="#D8F3FF" stroke-width="0.771273" stroke-miterlimit="10"/>
<path d="M0.42749 7.98718H5.67394" stroke="#D8F3FF" stroke-width="0.771273" stroke-miterlimit="10"/>
<path d="M0.42749 11.8189H5.67394" stroke="#D8F3FF" stroke-width="0.771273" stroke-miterlimit="10"/>
<path d="M0.42749 15.6509H5.67394" stroke="#D8F3FF" stroke-width="0.771273" stroke-miterlimit="10"/>
<path d="M0.42749 19.4826H10.9204" stroke="#D8F3FF" stroke-width="0.771273" stroke-miterlimit="10"/>
<path d="M0.42749 23.3143H5.67394" stroke="#D8F3FF" stroke-width="0.771273" stroke-miterlimit="10"/>
<path d="M0.42749 27.1461H5.67394" stroke="#D8F3FF" stroke-width="0.771273" stroke-miterlimit="10"/>
<path d="M0.42749 30.978H5.67394" stroke="#D8F3FF" stroke-width="0.771273" stroke-miterlimit="10"/>
<path d="M0.42749 34.8097H5.67394" stroke="#D8F3FF" stroke-width="0.771273" stroke-miterlimit="10"/>
<path d="M0.42749 38.6415H10.9204" stroke="#D8F3FF" stroke-width="0.771273" stroke-miterlimit="10"/>
<path d="M0.42749 42.4731H5.67394" stroke="#D8F3FF" stroke-width="0.771273" stroke-miterlimit="10"/>
<path d="M0.42749 46.3051H5.67394" stroke="#D8F3FF" stroke-width="0.771273" stroke-miterlimit="10"/>
<path d="M0.42749 50.1368H5.67394" stroke="#D8F3FF" stroke-width="0.771273" stroke-miterlimit="10"/>
<path d="M0.42749 53.9686H5.67394" stroke="#D8F3FF" stroke-width="0.771273" stroke-miterlimit="10"/>
<path d="M0.42749 57.8005H10.9204" stroke="#D8F3FF" stroke-width="0.771273" stroke-miterlimit="10"/>
<path d="M0.42749 61.6323H5.67394" stroke="#D8F3FF" stroke-width="0.771273" stroke-miterlimit="10"/>
<path d="M0.42749 65.464H5.67394" stroke="#D8F3FF" stroke-width="0.771273" stroke-miterlimit="10"/>
<path d="M0.42749 69.2957H5.67394" stroke="#D8F3FF" stroke-width="0.771273" stroke-miterlimit="10"/>
<path d="M0.42749 73.1276H5.67394" stroke="#D8F3FF" stroke-width="0.771273" stroke-miterlimit="10"/>
<path d="M0.42749 76.9594H10.9204" stroke="#D8F3FF" stroke-width="0.771273" stroke-miterlimit="10"/>
<path d="M0.42749 80.7911H5.67394" stroke="#D8F3FF" stroke-width="0.771273" stroke-miterlimit="10"/>
<path d="M0.42749 84.623H5.67394" stroke="#D8F3FF" stroke-width="0.771273" stroke-miterlimit="10"/>
<path d="M0.42749 88.4548H5.67394" stroke="#D8F3FF" stroke-width="0.771273" stroke-miterlimit="10"/>
<path d="M0.42749 92.2865H5.67394" stroke="#D8F3FF" stroke-width="0.771273" stroke-miterlimit="10"/>
<path d="M0.42749 96.1182H10.9204" stroke="#D8F3FF" stroke-width="0.771273" stroke-miterlimit="10"/>
<path d="M0.42749 99.9501H5.67394" stroke="#D8F3FF" stroke-width="0.771273" stroke-miterlimit="10"/>
<path d="M0.42749 103.782H5.67394" stroke="#D8F3FF" stroke-width="0.771273" stroke-miterlimit="10"/>
<path d="M0.42749 107.614H5.67394" stroke="#D8F3FF" stroke-width="0.771273" stroke-miterlimit="10"/>
<path d="M0.42749 111.446H5.67394" stroke="#D8F3FF" stroke-width="0.771273" stroke-miterlimit="10"/>
<path d="M0.42749 115.277H10.9204" stroke="#D8F3FF" stroke-width="0.771273" stroke-miterlimit="10"/>
<path d="M0.42749 119.109H5.67394" stroke="#D8F3FF" stroke-width="0.771273" stroke-miterlimit="10"/>
<path d="M0.42749 122.941H5.67394" stroke="#D8F3FF" stroke-width="0.771273" stroke-miterlimit="10"/>
<path d="M0.42749 126.773H5.67394" stroke="#D8F3FF" stroke-width="0.771273" stroke-miterlimit="10"/>
<path d="M0.42749 130.604H5.67394" stroke="#D8F3FF" stroke-width="0.771273" stroke-miterlimit="10"/>
<path d="M0.42749 134.436H10.9204" stroke="#D8F3FF" stroke-width="0.771273" stroke-miterlimit="10"/>
<path d="M0.42749 138.268H5.67394" stroke="#D8F3FF" stroke-width="0.771273" stroke-miterlimit="10"/>
<path d="M0.42749 142.1H5.67394" stroke="#D8F3FF" stroke-width="0.771273" stroke-miterlimit="10"/>
<path d="M0.42749 145.932H5.67394" stroke="#D8F3FF" stroke-width="0.771273" stroke-miterlimit="10"/>
<path d="M0.42749 149.763H5.67394" stroke="#D8F3FF" stroke-width="0.771273" stroke-miterlimit="10"/>
<path d="M0.42749 153.595H10.9204" stroke="#D8F3FF" stroke-width="0.771273" stroke-miterlimit="10"/>
<path d="M0.42749 157.427H5.67394" stroke="#D8F3FF" stroke-width="0.771273" stroke-miterlimit="10"/>
<path d="M0.42749 161.259H5.67394" stroke="#D8F3FF" stroke-width="0.771273" stroke-miterlimit="10"/>
<path d="M0.42749 165.09H5.67394" stroke="#D8F3FF" stroke-width="0.771273" stroke-miterlimit="10"/>
<path d="M0.42749 168.922H5.67394" stroke="#D8F3FF" stroke-width="0.771273" stroke-miterlimit="10"/>
<path d="M0.42749 172.754H10.9204" stroke="#D8F3FF" stroke-width="0.771273" stroke-miterlimit="10"/>
<path d="M0.42749 176.586H5.67394" stroke="#D8F3FF" stroke-width="0.771273" stroke-miterlimit="10"/>
<path d="M0.42749 180.418H5.67394" stroke="#D8F3FF" stroke-width="0.771273" stroke-miterlimit="10"/>
<path d="M0.42749 184.249H5.67394" stroke="#D8F3FF" stroke-width="0.771273" stroke-miterlimit="10"/>
<path d="M0.42749 188.081H5.67394" stroke="#D8F3FF" stroke-width="0.771273" stroke-miterlimit="10"/>
<path d="M0.42749 191.913H10.9204" stroke="#D8F3FF" stroke-width="0.771273" stroke-miterlimit="10"/>
<path d="M0.42749 195.745H5.67394" stroke="#D8F3FF" stroke-width="0.771273" stroke-miterlimit="10"/>
<path d="M0.42749 199.577H5.67394" stroke="#D8F3FF" stroke-width="0.771273" stroke-miterlimit="10"/>
<path d="M0.42749 203.408H5.67394" stroke="#D8F3FF" stroke-width="0.771273" stroke-miterlimit="10"/>
<path d="M0.42749 207.24H5.67394" stroke="#D8F3FF" stroke-width="0.771273" stroke-miterlimit="10"/>
<path d="M0.42749 211.072H10.9204" stroke="#D8F3FF" stroke-width="0.771273" stroke-miterlimit="10"/>
<path d="M0.42749 214.904H5.67394" stroke="#D8F3FF" stroke-width="0.771273" stroke-miterlimit="10"/>
<path d="M0.42749 218.735H5.67394" stroke="#D8F3FF" stroke-width="0.771273" stroke-miterlimit="10"/>
<path d="M0.42749 222.567H5.67394" stroke="#D8F3FF" stroke-width="0.771273" stroke-miterlimit="10"/>
<path d="M0.42749 226.399H5.67394" stroke="#D8F3FF" stroke-width="0.771273" stroke-miterlimit="10"/>
<path d="M0.42749 230.231H10.9204" stroke="#D8F3FF" stroke-width="0.771273" stroke-miterlimit="10"/>
<path d="M0.42749 234.063H5.67394" stroke="#D8F3FF" stroke-width="0.771273" stroke-miterlimit="10"/>
<path d="M0.42749 237.895H5.67394" stroke="#D8F3FF" stroke-width="0.771273" stroke-miterlimit="10"/>
<path d="M0.42749 241.726H5.67394" stroke="#D8F3FF" stroke-width="0.771273" stroke-miterlimit="10"/>
<path d="M0.42749 245.558H5.67394" stroke="#D8F3FF" stroke-width="0.771273" stroke-miterlimit="10"/>
<path d="M0.42749 249.39H10.9204" stroke="#D8F3FF" stroke-width="0.771273" stroke-miterlimit="10"/>
<path d="M0.42749 253.222H5.67394" stroke="#D8F3FF" stroke-width="0.771273" stroke-miterlimit="10"/>
<path d="M0.42749 257.053H5.67394" stroke="#D8F3FF" stroke-width="0.771273" stroke-miterlimit="10"/>
<path d="M0.42749 260.885H5.67394" stroke="#D8F3FF" stroke-width="0.771273" stroke-miterlimit="10"/>
<path d="M0.42749 264.717H5.67394" stroke="#D8F3FF" stroke-width="0.771273" stroke-miterlimit="10"/>
<path d="M0.42749 268.549H10.9204" stroke="#D8F3FF" stroke-width="0.771273" stroke-miterlimit="10"/>
<path d="M0.42749 272.38H5.67394" stroke="#D8F3FF" stroke-width="0.771273" stroke-miterlimit="10"/>
<path d="M0.42749 276.212H5.67394" stroke="#D8F3FF" stroke-width="0.771273" stroke-miterlimit="10"/>
<path d="M0.42749 280.044H5.67394" stroke="#D8F3FF" stroke-width="0.771273" stroke-miterlimit="10"/>
<path d="M0.42749 283.876H5.67394" stroke="#D8F3FF" stroke-width="0.771273" stroke-miterlimit="10"/>
<path d="M0.42749 287.708H10.9204" stroke="#D8F3FF" stroke-width="0.771273" stroke-miterlimit="10"/>
<path d="M0.42749 291.54H5.67394" stroke="#D8F3FF" stroke-width="0.771273" stroke-miterlimit="10"/>
<path d="M0.42749 295.371H5.67394" stroke="#D8F3FF" stroke-width="0.771273" stroke-miterlimit="10"/>
<path d="M0.42749 299.203H5.67394" stroke="#D8F3FF" stroke-width="0.771273" stroke-miterlimit="10"/>
<path d="M0.42749 303.035H5.67394" stroke="#D8F3FF" stroke-width="0.771273" stroke-miterlimit="10"/>
<path d="M0.42749 306.867H10.9204" stroke="#D8F3FF" stroke-width="0.771273" stroke-miterlimit="10"/>
<path d="M0.42749 310.698H5.67394" stroke="#D8F3FF" stroke-width="0.771273" stroke-miterlimit="10"/>
<path d="M0.42749 314.53H5.67394" stroke="#D8F3FF" stroke-width="0.771273" stroke-miterlimit="10"/>
<path d="M0.42749 318.362H5.67394" stroke="#D8F3FF" stroke-width="0.771273" stroke-miterlimit="10"/>
<path d="M0.42749 322.194H5.67394" stroke="#D8F3FF" stroke-width="0.771273" stroke-miterlimit="10"/>
<path d="M0.42749 326.026H10.9204" stroke="#D8F3FF" stroke-width="0.771273" stroke-miterlimit="10"/>
<path d="M0.42749 329.857H5.67394" stroke="#D8F3FF" stroke-width="0.771273" stroke-miterlimit="10"/>
<path d="M0.42749 333.689H5.67394" stroke="#D8F3FF" stroke-width="0.771273" stroke-miterlimit="10"/>
<path d="M0.42749 337.521H5.67394" stroke="#D8F3FF" stroke-width="0.771273" stroke-miterlimit="10"/>
<path d="M0.42749 341.353H5.67394" stroke="#D8F3FF" stroke-width="0.771273" stroke-miterlimit="10"/>
<path d="M0.42749 345.185H10.9204" stroke="#D8F3FF" stroke-width="0.771273" stroke-miterlimit="10"/>
<path d="M0.42749 349.016H5.67394" stroke="#D8F3FF" stroke-width="0.771273" stroke-miterlimit="10"/>
<path d="M0.42749 352.848H5.67394" stroke="#D8F3FF" stroke-width="0.771273" stroke-miterlimit="10"/>
<path d="M0.42749 356.68H5.67394" stroke="#D8F3FF" stroke-width="0.771273" stroke-miterlimit="10"/>
<path d="M0.42749 360.512H5.67394" stroke="#D8F3FF" stroke-width="0.771273" stroke-miterlimit="10"/>
<path d="M0.42749 364.343H10.9204" stroke="#D8F3FF" stroke-width="0.771273" stroke-miterlimit="10"/>
<path d="M0.42749 368.175H5.67394" stroke="#D8F3FF" stroke-width="0.771273" stroke-miterlimit="10"/>
<path d="M0.42749 372.007H5.67394" stroke="#D8F3FF" stroke-width="0.771273" stroke-miterlimit="10"/>
<path d="M0.42749 375.839H5.67394" stroke="#D8F3FF" stroke-width="0.771273" stroke-miterlimit="10"/>
<path d="M0.42749 379.671H5.67394" stroke="#D8F3FF" stroke-width="0.771273" stroke-miterlimit="10"/>
<path d="M0.42749 383.502H10.9204" stroke="#D8F3FF" stroke-width="0.771273" stroke-miterlimit="10"/>
<path d="M0.42749 387.334H5.67394" stroke="#D8F3FF" stroke-width="0.771273" stroke-miterlimit="10"/>
<path d="M0.42749 391.166H5.67394" stroke="#D8F3FF" stroke-width="0.771273" stroke-miterlimit="10"/>
<path d="M0.42749 394.998H5.67394" stroke="#D8F3FF" stroke-width="0.771273" stroke-miterlimit="10"/>
<path d="M0.42749 398.83H5.67394" stroke="#D8F3FF" stroke-width="0.771273" stroke-miterlimit="10"/>
<path d="M0.42749 402.661H10.9204" stroke="#D8F3FF" stroke-width="0.771273" stroke-miterlimit="10"/>
<path d="M0.42749 406.493H5.67394" stroke="#D8F3FF" stroke-width="0.771273" stroke-miterlimit="10"/>
<path d="M0.42749 410.325H5.67394" stroke="#D8F3FF" stroke-width="0.771273" stroke-miterlimit="10"/>
<path d="M0.42749 414.157H5.67394" stroke="#D8F3FF" stroke-width="0.771273" stroke-miterlimit="10"/>
<path d="M0.42749 417.988H5.67394" stroke="#D8F3FF" stroke-width="0.771273" stroke-miterlimit="10"/>
<path d="M0.42749 421.82H10.9204" stroke="#D8F3FF" stroke-width="0.771273" stroke-miterlimit="10"/>
<path d="M0.42749 425.652H5.67394" stroke="#D8F3FF" stroke-width="0.771273" stroke-miterlimit="10"/>
<path d="M0.42749 429.484H5.67394" stroke="#D8F3FF" stroke-width="0.771273" stroke-miterlimit="10"/>
<path d="M0.42749 433.316H5.67394" stroke="#D8F3FF" stroke-width="0.771273" stroke-miterlimit="10"/>
<path d="M0.42749 437.147H5.67394" stroke="#D8F3FF" stroke-width="0.771273" stroke-miterlimit="10"/>
<path d="M0.42749 440.979H10.9204" stroke="#D8F3FF" stroke-width="0.771273" stroke-miterlimit="10"/>
</g>
</g>
<defs>
<clipPath id="clip0_0_1898">
<rect width="316" height="441" fill="white" transform="translate(0.000244141)"/>
</clipPath>
</defs>
</svg>
