<svg width="358" height="370" viewBox="0 0 358 370" fill="none" xmlns="http://www.w3.org/2000/svg">
<path d="M222.111 352.541C221.824 352.541 221.564 352.352 221.492 352.065C221.402 351.724 221.608 351.384 221.949 351.294C298.359 331.573 351.2 262.624 350.429 183.632C349.658 104.639 295.498 36.731 218.721 18.4984C218.38 18.4177 218.174 18.0769 218.254 17.7361C218.335 17.3953 218.676 17.1801 219.017 17.2698C296.368 35.6369 350.931 104.047 351.703 183.623C352.474 263.207 299.256 332.658 222.272 352.532C222.218 352.541 222.173 352.55 222.12 352.55L222.111 352.541Z" fill="#97D7F5"/>
<path d="M139.082 353.348C139.028 353.348 138.984 353.348 138.93 353.33C61.5783 334.963 7.01514 266.553 6.24387 186.968C5.4726 107.392 58.6905 37.9328 135.674 18.068C136.015 17.9783 136.356 18.1846 136.446 18.5254C136.535 18.8662 136.329 19.207 135.988 19.2966C59.5783 39.0179 6.74609 107.966 7.51737 186.959C8.28864 265.961 62.4482 333.86 139.226 352.092C139.567 352.173 139.773 352.514 139.692 352.854C139.62 353.141 139.369 353.339 139.082 353.339V353.348Z" fill="#97D7F5"/>
<path d="M355.855 178.843C355.164 161.444 351.954 144.153 346.268 127.696C343.972 125.804 341.766 123.948 339.461 122.199L339.021 121.885C342.654 131.06 345.532 140.674 347.586 150.664L347.523 150.602C349.505 160.269 350.671 170.233 350.958 180.43L350.904 180.358C351.2 191.255 350.474 202.331 348.627 213.487C346.77 224.662 343.864 235.397 340.044 245.621C342.465 243.71 344.86 241.71 347.254 239.639C350.357 229.926 352.617 219.944 354.034 209.855C354.097 209.774 354.16 209.703 354.223 209.622C355.595 199.515 356.088 189.3 355.72 179.112C355.765 179.022 355.819 178.941 355.864 178.852L355.855 178.843Z" fill="#97D7F5"/>
<path d="M6.98798 183.712C6.98798 183.712 6.95211 183.775 6.9252 183.811C7.01489 173.587 7.99243 163.561 9.79506 153.83C9.76815 153.857 9.74125 153.884 9.72331 153.911C11.5887 143.857 14.2882 134.154 17.7499 124.88C15.3285 126.791 12.934 128.782 10.5394 130.862C5.2302 147.445 2.33344 164.798 2.05542 182.206C2.08232 182.26 2.10923 182.304 2.13613 182.349C1.97471 192.609 2.67423 202.869 4.28853 213.003C4.3244 213.048 4.36027 213.084 4.39615 213.128C6.01941 223.254 8.48569 233.244 11.8398 242.948C14.1357 244.84 16.3419 246.697 18.6468 248.437L19.0862 248.751C15.0774 238.616 11.9744 227.953 9.90268 216.841C7.831 205.703 6.88933 194.627 6.97901 183.712H6.98798Z" fill="#97D7F5"/>
<path d="M201.977 14.0501C201.816 14.0501 201.645 13.9963 201.52 13.8708L198.632 11.0368L155.916 11.4493L153.082 14.3371C152.831 14.5883 152.427 14.5972 152.176 14.3371C151.925 14.086 151.916 13.6824 152.176 13.4313L155.189 10.3552C155.306 10.2386 155.467 10.1669 155.638 10.1669L198.883 9.74536C199.053 9.74536 199.215 9.80814 199.34 9.92472L202.416 12.9381C202.668 13.1892 202.677 13.5928 202.416 13.8439C202.291 13.9694 202.13 14.0322 201.968 14.0322L201.977 14.0501Z" fill="#D8F3FF"/>
<g style="mix-blend-mode:screen" opacity="0.5">
<path d="M202.29 360.415L159.045 360.836C158.875 360.836 158.713 360.774 158.588 360.648L155.512 357.635C155.26 357.384 155.251 356.98 155.512 356.729C155.763 356.478 156.166 356.469 156.417 356.729L159.305 359.563L202.021 359.15L204.855 356.263C205.106 356.011 205.51 356.002 205.761 356.263C206.012 356.514 206.021 356.917 205.761 357.168L202.748 360.244C202.631 360.361 202.47 360.433 202.299 360.433L202.29 360.415Z" fill="#97D7F5"/>
</g>
<path d="M144.069 7.66479L144.141 15.0726L152.759 6.63343C156.75 6.59755 197.708 6.19398 201.699 6.15811L210.479 14.4269L210.407 7.01907L203.86 0.848877C198.157 0.902687 156.203 1.31523 150.499 1.36904L144.069 7.66479Z" fill="#D8F3FF"/>
<path d="M213.86 362.926L213.788 355.518L205.17 363.957C201.179 363.993 160.221 364.397 156.23 364.433L147.45 356.155L147.521 363.563L154.068 369.733C159.772 369.679 201.726 369.266 207.43 369.213L213.86 362.917V362.926Z" fill="#97D7F5"/>
<path d="M355.774 157.247C353.998 155.175 352.294 153.149 350.5 151.184C352.572 161.677 353.72 172.502 353.827 183.587C353.935 194.672 352.993 205.55 351.119 216.097C352.886 214.088 354.617 212.025 356.339 209.9C358.715 192.439 358.554 174.637 355.774 157.238V157.247Z" fill="#97D7F5"/>
<path d="M6.88068 154.476C5.11392 156.485 3.38304 158.547 1.66113 160.673C-0.71547 178.134 -0.55404 195.936 2.22613 213.335C4.00185 215.406 5.7148 217.433 7.49949 219.388C5.42781 208.895 4.27987 198.071 4.17225 186.986C4.06463 175.901 5.0063 165.023 6.88068 154.476Z" fill="#97D7F5"/>
<path d="M72.4924 368.531H7.68753C7.33777 368.531 7.05078 368.244 7.05078 367.894C7.05078 367.544 7.33777 367.258 7.68753 367.258H72.2324L94.2316 345.258C94.4827 345.007 94.8863 345.007 95.1374 345.258C95.3885 345.509 95.3885 345.913 95.1374 346.164L72.9498 368.352C72.8332 368.477 72.6718 368.54 72.5014 368.54L72.4924 368.531Z" fill="#97D7F5"/>
<path d="M43.6512 349.267C43.6512 349.357 43.6422 349.456 43.6153 349.545C43.7409 349.689 43.8306 349.877 43.8306 350.092V350.98C43.8306 351.456 43.418 351.841 42.9068 351.841H40.2432C39.7321 351.841 39.3105 351.447 39.3105 350.98V350.648H40.2881V350.935H42.853V350.146H40.0639V349.231H42.6826V348.469H40.2881V348.801H39.3105V348.415C39.3105 347.94 39.7321 347.554 40.2432 347.554H42.7364C43.2476 347.554 43.6602 347.94 43.6602 348.415V349.276L43.6512 349.267Z" fill="#97D7F5"/>
<path d="M45.7131 351.841H44.7356V350.926H45.7131V351.841Z" fill="#97D7F5"/>
<path d="M50.601 349.85V350.774H49.9822V351.841H49.0047V350.774H46.2424V349.958L49.1033 347.545H49.9822V349.859H50.601V349.85ZM47.8388 349.85H49.0047V348.971L47.8388 349.85Z" fill="#97D7F5"/>
<path d="M52.4307 348.451V349.195H55.0404C55.5516 349.195 55.9731 349.581 55.9731 350.065V350.971C55.9731 351.446 55.5516 351.832 55.0404 351.832H52.3858C51.8746 351.832 51.4531 351.437 51.4531 350.971V350.639H52.4307V350.926H54.9956V350.119H51.4531V347.536H55.9821V348.451H52.4307Z" fill="#97D7F5"/>
<path d="M59.6054 347.527C60.1166 347.527 60.5292 347.913 60.5292 348.397V351.832H59.5516V348.442H56.6997V347.527H59.5965H59.6054Z" fill="#97D7F5"/>
<path d="M62.3674 351.841C61.91 351.841 61.5064 351.447 61.4167 350.926H64.9861V350.164H62.3764C61.8652 350.164 61.4437 349.769 61.4437 349.294V348.406C61.4437 347.931 61.8652 347.545 62.3764 347.545H65.0399C65.5511 347.545 65.9726 347.931 65.9726 348.406V350.98C65.9726 351.455 65.5601 351.841 65.0399 351.841H62.3764H62.3674ZM64.9772 349.24V348.451H62.4212V349.24H64.9772Z" fill="#97D7F5"/>
<path d="M43.3542 357.016V357.94H42.7354V359.007H41.7578V357.94H38.9956V357.123L41.8565 354.711H42.7354V357.025H43.3542V357.016ZM40.592 357.016H41.7578V356.137L40.592 357.016Z" fill="#97D7F5"/>
<path d="M45.1123 359.007H44.1348V358.092H45.1123V359.007Z" fill="#97D7F5"/>
<path d="M50.2244 356.424C50.2244 356.514 50.2155 356.612 50.1886 356.702C50.3141 356.845 50.4038 357.034 50.4038 357.249V358.137C50.4038 358.612 49.9913 358.998 49.4801 358.998H46.8165C46.3053 358.998 45.8838 358.603 45.8838 358.137V357.805H46.8613V358.092H49.4263V357.303H46.6371V356.388H49.2559V355.626H46.8613V355.958H45.8838V355.572C45.8838 355.097 46.3053 354.711 46.8165 354.711H49.3097C49.8209 354.711 50.2424 355.097 50.2424 355.572V356.433L50.2244 356.424Z" fill="#97D7F5"/>
<path d="M55.6593 356.424C55.6593 356.514 55.6503 356.612 55.6234 356.702C55.7489 356.845 55.8386 357.034 55.8386 357.249V358.137C55.8386 358.612 55.4261 358.998 54.9149 358.998H52.2513C51.7401 358.998 51.3186 358.603 51.3186 358.137V357.805H52.2961V358.092H54.8611V357.303H52.0719V356.388H54.6907V355.626H52.2961V355.958H51.3186V355.572C51.3186 355.097 51.7401 354.711 52.2513 354.711H54.7445C55.2557 354.711 55.6772 355.097 55.6772 355.572V356.433L55.6593 356.424Z" fill="#97D7F5"/>
<path d="M57.731 355.617V356.361H60.3407C60.8519 356.361 61.2734 356.747 61.2734 357.231V358.137C61.2734 358.612 60.8519 358.998 60.3407 358.998H57.6861C57.1749 358.998 56.7534 358.603 56.7534 358.137V355.563C56.7534 355.088 57.1749 354.702 57.6861 354.702H60.5829V355.617H57.731ZM57.731 358.092H60.2959V357.285H57.731V358.092Z" fill="#97D7F5"/>
<path d="M63.1475 355.617V356.361H65.7572C66.2684 356.361 66.6899 356.747 66.6899 357.231V358.137C66.6899 358.612 66.2684 358.998 65.7572 358.998H63.1026C62.5914 358.998 62.1699 358.603 62.1699 358.137V357.805H63.1475V358.092H65.7124V357.285H62.1699V354.702H66.6989V355.617H63.1475Z" fill="#97D7F5"/>
<path d="M262.405 24.8301C262.244 24.8301 262.074 24.7674 261.948 24.6418C261.697 24.3907 261.697 23.9871 261.948 23.736L284.136 1.54843C284.252 1.43185 284.423 1.36011 284.593 1.36011H357.084C357.443 1.36011 357.721 1.64709 357.721 1.99685C357.721 2.34661 357.434 2.6336 357.084 2.6336H284.853L262.854 24.6328C262.728 24.7584 262.567 24.8212 262.405 24.8212V24.8301Z" fill="#97D7F5"/>
<path d="M286.907 12.0595H287.212V12.8038H286.872C286.45 12.8038 286.109 12.481 286.109 12.0954V11.4407L286.029 11.3869C286.029 11.3869 285.93 11.3331 285.894 11.3241V10.6873L286.1 10.5797V10.0057C286.1 9.62011 286.441 9.29724 286.863 9.29724H287.203V10.0416H286.898V10.8218L286.665 11.0012L286.782 11.0999L286.898 11.1806V12.0415L286.907 12.0595Z" fill="#97D7F5"/>
<path d="M290.728 9.31494C291.15 9.31494 291.49 9.64677 291.49 10.0414V12.0592C291.49 12.4449 291.15 12.8126 290.728 12.8126H288.567C288.154 12.8126 287.804 12.4449 287.804 12.0592V10.0414C287.804 9.65573 288.145 9.31494 288.567 9.31494H290.728ZM288.612 10.0773V11.3777L290.271 10.0773H288.612ZM290.692 12.0144V10.714L289.033 12.0144H290.692Z" fill="#97D7F5"/>
<path d="M293.044 12.8053H292.244V12.0592H293.044V12.8053Z" fill="#97D7F5"/>
<path d="M297.194 10.714C297.194 10.7857 297.185 10.8665 297.158 10.9382C297.266 11.0548 297.329 11.2073 297.329 11.3777V12.1041C297.329 12.4897 296.988 12.8126 296.576 12.8126H294.414C294.002 12.8126 293.652 12.4897 293.652 12.1041V11.835H294.45V12.0682H296.54V11.4225H294.271V10.6781H296.396V10.0593H294.45V10.3284H293.652V10.0234C293.652 9.63779 293.993 9.31494 294.414 9.31494H296.441C296.854 9.31494 297.194 9.62883 297.194 10.0234V10.723V10.714Z" fill="#97D7F5"/>
<path d="M298.872 9.81718V9.99654H299.993V10.7409H298.872V12.8126H298.073V9.78131C298.073 9.39568 298.414 9.08179 298.836 9.08179H299.993V9.82614H298.872V9.81718Z" fill="#97D7F5"/>
<path d="M300.907 12.113V12.7229C300.907 13.0727 300.566 13.3686 300.109 13.4493V12.113H300.907Z" fill="#97D7F5"/>
<path d="M307.66 9.31494C308.073 9.31494 308.422 9.64677 308.422 10.0414V12.0592C308.422 12.4449 308.081 12.8126 307.66 12.8126H305.499C305.086 12.8126 304.736 12.4449 304.736 12.0592V10.0414C304.736 9.65573 305.077 9.31494 305.499 9.31494H307.66ZM305.534 10.0773V11.3777L307.194 10.0773H305.534ZM307.624 12.0144V10.714L305.965 12.0144H307.624Z" fill="#97D7F5"/>
<path d="M309.976 12.8053H309.176V12.0592H309.976V12.8053Z" fill="#97D7F5"/>
<path d="M313.947 11.1893V11.9337H313.445V12.8036H312.656V11.9337H310.414V11.27L312.736 9.31494H313.445V11.1893H313.947ZM311.705 11.1893H312.656V10.4718L311.705 11.1893Z" fill="#97D7F5"/>
<path d="M315.417 9.81718V9.99654H316.538V10.7409H315.417V12.8126H314.619V9.78131C314.619 9.39568 314.96 9.08179 315.381 9.08179H316.538V9.82614H315.417V9.81718Z" fill="#97D7F5"/>
<path d="M317.453 12.113V12.7229C317.453 13.0727 317.112 13.3686 316.655 13.4493V12.113H317.453Z" fill="#97D7F5"/>
<path d="M324.207 9.31494C324.619 9.31494 324.969 9.64677 324.969 10.0414V12.0592C324.969 12.4449 324.628 12.8126 324.207 12.8126H322.045C321.633 12.8126 321.283 12.4449 321.283 12.0592V10.0414C321.283 9.65573 321.624 9.31494 322.045 9.31494H324.207ZM322.081 10.0773V11.3777L323.74 10.0773H322.081ZM324.171 12.0144V10.714L322.512 12.0144H324.171Z" fill="#97D7F5"/>
<path d="M326.522 12.8053H325.722V12.0592H326.522V12.8053Z" fill="#97D7F5"/>
<path d="M327.947 10.0593V10.6691H330.063C330.476 10.6691 330.826 10.983 330.826 11.3687V12.1041C330.826 12.4897 330.485 12.8126 330.063 12.8126H327.902C327.489 12.8126 327.14 12.4897 327.14 12.1041V10.0234C327.14 9.63779 327.48 9.31494 327.902 9.31494H330.252V10.0593H327.938H327.947ZM327.947 12.0682H330.027V11.4135H327.947V12.0682Z" fill="#97D7F5"/>
<path d="M332.332 9.81718V9.99654H333.453V10.7409H332.332V12.8126H331.534V9.78131C331.534 9.39568 331.875 9.08179 332.296 9.08179H333.453V9.82614H332.332V9.81718Z" fill="#97D7F5"/>
<path d="M334.368 12.113V12.7229C334.368 13.0727 334.027 13.3686 333.569 13.4493V12.113H334.368Z" fill="#97D7F5"/>
<path d="M341.121 9.31494C341.533 9.31494 341.883 9.64677 341.883 10.0414V12.0592C341.883 12.4449 341.542 12.8126 341.121 12.8126H338.96C338.547 12.8126 338.197 12.4449 338.197 12.0592V10.0414C338.197 9.65573 338.538 9.31494 338.96 9.31494H341.121ZM338.995 10.0773V11.3777L340.655 10.0773H338.995ZM341.085 12.0144V10.714L339.426 12.0144H341.085Z" fill="#97D7F5"/>
<path d="M343.428 12.8053H342.628V12.0592H343.428V12.8053Z" fill="#97D7F5"/>
<path d="M346.977 9.31494C347.39 9.31494 347.739 9.64677 347.739 10.0414V12.0592C347.739 12.4449 347.399 12.8126 346.977 12.8126H344.816C344.403 12.8126 344.053 12.4449 344.053 12.0592V10.0414C344.053 9.65573 344.394 9.31494 344.816 9.31494H346.977ZM344.852 10.0773V11.3777L346.511 10.0773H344.852ZM346.941 12.0144V10.714L345.282 12.0144H346.941Z" fill="#97D7F5"/>
<path d="M349.3 10.0594V10.6692H351.426C351.838 10.6692 352.188 10.9831 352.188 11.3687V12.1042C352.188 12.4898 351.847 12.8126 351.426 12.8126H349.264C348.852 12.8126 348.502 12.4898 348.502 12.1042V11.8351H349.3V12.0683H351.381V11.4136H348.502V9.32397H352.179V10.0683H349.3V10.0594Z" fill="#97D7F5"/>
<path d="M353.712 9.81718V9.99654H354.834V10.7409H353.712V12.8126H352.914V9.78131C352.914 9.39568 353.255 9.08179 353.677 9.08179H354.834V9.82614H353.712V9.81718Z" fill="#97D7F5"/>
<path d="M355.425 12.0592H355.73V11.1983L355.963 11.0189L355.73 10.8395V10.0593H355.425V9.31494H355.766C356.178 9.31494 356.528 9.62883 356.528 10.0234V10.5974L356.734 10.714V11.3328L356.528 11.4584V12.113C356.528 12.4987 356.187 12.8215 355.766 12.8215H355.425V12.0772V12.0592Z" fill="#97D7F5"/>
<path d="M357.945 12.113V12.7229C357.945 13.0727 357.605 13.3686 357.147 13.4493V12.113H357.945Z" fill="#97D7F5"/>
<path d="M286.907 17.8886H287.212V18.633H286.872C286.45 18.633 286.109 18.3102 286.109 17.9245V17.2698L286.029 17.225C286.029 17.225 285.93 17.1712 285.894 17.1622V16.5255L286.1 16.4178V15.8439C286.1 15.4582 286.441 15.1354 286.863 15.1354H287.203V15.8797H286.898V16.66L286.665 16.8393L286.782 16.938L286.898 17.0187V17.8797L286.907 17.8886Z" fill="#97D7F5"/>
<path d="M290.728 15.1444C291.15 15.1444 291.49 15.4762 291.49 15.8708V17.8887C291.49 18.2743 291.15 18.642 290.728 18.642H288.567C288.154 18.642 287.804 18.2743 287.804 17.8887V15.8708C287.804 15.4852 288.145 15.1444 288.567 15.1444H290.728ZM288.612 15.9067V17.2071L290.271 15.9067H288.612ZM290.692 17.8439V16.5435L289.033 17.8439H290.692Z" fill="#97D7F5"/>
<path d="M293.044 18.6347H292.244V17.8887H293.044V18.6347Z" fill="#97D7F5"/>
<path d="M294.468 15.8797V16.4896H296.593C297.006 16.4896 297.355 16.8035 297.355 17.1891V17.9245C297.355 18.3102 297.015 18.633 296.593 18.633H294.432C294.019 18.633 293.669 18.3102 293.669 17.9245V15.8439C293.669 15.4582 294.01 15.1354 294.432 15.1354H296.781V15.8797H294.468ZM294.468 17.8886H296.557V17.234H294.468V17.8886Z" fill="#97D7F5"/>
<path d="M298.854 15.6465V15.8259H299.975V16.5613H298.854V18.633H298.055V15.6017C298.055 15.216 298.396 14.8932 298.818 14.8932H299.975V15.6376H298.854V15.6465Z" fill="#97D7F5"/>
<path d="M300.89 17.9425V18.5524C300.89 18.9021 300.549 19.1981 300.091 19.2788V17.9425H300.89Z" fill="#97D7F5"/>
<path d="M307.642 15.1444C308.055 15.1444 308.405 15.4762 308.405 15.8708V17.8887C308.405 18.2743 308.064 18.642 307.642 18.642H305.481C305.069 18.642 304.719 18.2743 304.719 17.8887V15.8708C304.719 15.4852 305.06 15.1444 305.481 15.1444H307.642ZM305.526 15.9067V17.2071L307.185 15.9067H305.526ZM307.607 17.8439V16.5435L305.947 17.8439H307.607Z" fill="#97D7F5"/>
<path d="M309.958 18.6347H309.158V17.8887H309.958V18.6347Z" fill="#97D7F5"/>
<path d="M311.381 15.8797V16.4896H313.507C313.919 16.4896 314.269 16.8035 314.269 17.1891V17.9245C314.269 18.3102 313.928 18.633 313.507 18.633H311.346C310.924 18.633 310.583 18.3102 310.583 17.9245V15.8439C310.583 15.4582 310.924 15.1354 311.346 15.1354H313.695V15.8797H311.381ZM311.381 17.8886H313.471V17.234H311.381V17.8886Z" fill="#97D7F5"/>
<path d="M315.767 15.6465V15.8259H316.888V16.5613H315.767V18.633H314.969V15.6017C314.969 15.216 315.31 14.8932 315.732 14.8932H316.888V15.6376H315.767V15.6465Z" fill="#97D7F5"/>
<path d="M317.804 17.9425V18.5524C317.804 18.9021 317.463 19.1981 317.005 19.2788V17.9425H317.804Z" fill="#97D7F5"/>
<path d="M324.556 15.1444C324.969 15.1444 325.319 15.4762 325.319 15.8708V17.8887C325.319 18.2743 324.978 18.642 324.556 18.642H322.395C321.983 18.642 321.633 18.2743 321.633 17.8887V15.8708C321.633 15.4852 321.974 15.1444 322.395 15.1444H324.556ZM322.44 15.9067V17.2071L324.099 15.9067H322.44ZM324.521 17.8439V16.5435L322.861 17.8439H324.521Z" fill="#97D7F5"/>
<path d="M326.872 18.6347H326.072V17.8887H326.872V18.6347Z" fill="#97D7F5"/>
<path d="M328.296 15.8797V16.4896H330.422C330.834 16.4896 331.184 16.8035 331.184 17.1891V17.9245C331.184 18.3102 330.843 18.633 330.422 18.633H328.26C327.848 18.633 327.498 18.3102 327.498 17.9245V15.8439C327.498 15.4582 327.839 15.1354 328.26 15.1354H330.61V15.8797H328.296ZM328.296 17.8886H330.386V17.234H328.296V17.8886Z" fill="#97D7F5"/>
<path d="M332.682 15.6465V15.8259H333.803V16.5613H332.682V18.633H331.884V15.6017C331.884 15.216 332.224 14.8932 332.646 14.8932H333.803V15.6376H332.682V15.6465Z" fill="#97D7F5"/>
<path d="M334.718 17.9425V18.5524C334.718 18.9021 334.377 19.1981 333.92 19.2788V17.9425H334.718Z" fill="#97D7F5"/>
<path d="M341.471 15.1444C341.883 15.1444 342.233 15.4762 342.233 15.8708V17.8887C342.233 18.2743 341.892 18.642 341.471 18.642H339.309C338.897 18.642 338.547 18.2743 338.547 17.8887V15.8708C338.547 15.4852 338.888 15.1444 339.309 15.1444H341.471ZM339.345 15.9067V17.2071L341.004 15.9067H339.345ZM341.435 17.8439V16.5435L339.776 17.8439H341.435Z" fill="#97D7F5"/>
<path d="M343.787 18.6347H342.987V17.8887H343.787V18.6347Z" fill="#97D7F5"/>
<path d="M347.327 15.1444C347.74 15.1444 348.089 15.4762 348.089 15.8708V17.8887C348.089 18.2743 347.749 18.642 347.327 18.642H345.166C344.753 18.642 344.403 18.2743 344.403 17.8887V15.8708C344.403 15.4852 344.744 15.1444 345.166 15.1444H347.327ZM345.202 15.9067V17.2071L346.861 15.9067H345.202ZM347.282 17.8439V16.5435L345.623 17.8439H347.282Z" fill="#97D7F5"/>
<path d="M349.65 15.8798V16.4897H351.775C352.188 16.4897 352.538 16.8035 352.538 17.1892V17.9246C352.538 18.3102 352.197 18.6331 351.775 18.6331H349.614C349.192 18.6331 348.852 18.3102 348.852 17.9246V17.6555H349.65V17.8887H351.73V17.234H348.852V15.1444H352.529V15.8888H349.65V15.8798Z" fill="#97D7F5"/>
<path d="M354.071 15.6465V15.8259H355.192V16.5613H354.071V18.633H353.273V15.6017C353.273 15.216 353.614 14.8932 354.035 14.8932H355.192V15.6376H354.071V15.6465Z" fill="#97D7F5"/>
<path d="M355.775 17.8886H356.08V17.0277L356.313 16.8393L356.08 16.66V15.8797H355.775V15.1354H356.116C356.537 15.1354 356.878 15.4493 356.878 15.8439V16.4178L357.085 16.5344V17.1532L356.878 17.2788V17.9335C356.878 18.3191 356.537 18.642 356.116 18.642H355.775V17.8976V17.8886Z" fill="#97D7F5"/>
</svg>
