<svg width="276" height="275" viewBox="0 0 276 275" fill="none" xmlns="http://www.w3.org/2000/svg">
<path d="M189.012 10.6227L87.105 264.372" stroke="#D8F5FF" stroke-width="0.860956" stroke-miterlimit="10"/>
<path d="M264.928 188.455L11.1794 86.5483" stroke="#D8F5FF" stroke-width="0.860956" stroke-miterlimit="10"/>
<path d="M191.747 263.242L84.3696 11.7527" stroke="#D8F5FF" stroke-width="0.860956" stroke-miterlimit="10"/>
<path d="M12.3091 191.19L263.798 83.8129" stroke="#D8F5FF" stroke-width="0.860956" stroke-miterlimit="10"/>
<path d="M138.055 274.201C213.554 274.201 274.758 212.997 274.758 137.497C274.758 61.9978 213.554 0.793457 138.055 0.793457C62.5552 0.793457 1.35083 61.9978 1.35083 137.497C1.35083 212.997 62.5552 274.201 138.055 274.201Z" stroke="#D8F5FF" stroke-width="0.932703" stroke-miterlimit="10"/>
<path d="M138.055 248.668C199.453 248.668 249.226 198.895 249.226 137.497C249.226 76.0991 199.453 26.3262 138.055 26.3262C76.6565 26.3262 26.8835 76.0991 26.8835 137.497C26.8835 198.895 76.6565 248.668 138.055 248.668Z" stroke="#D8F5FF" stroke-width="0.932703" stroke-miterlimit="10"/>
<path d="M138.054 223.126C185.346 223.126 223.684 184.789 223.684 137.497C223.684 90.2055 185.346 51.8679 138.054 51.8679C90.7626 51.8679 52.425 90.2055 52.425 137.497C52.425 184.789 90.7626 223.126 138.054 223.126Z" stroke="#D8F5FF" stroke-width="0.932703" stroke-miterlimit="10"/>
<path d="M138.054 197.594C171.245 197.594 198.151 170.688 198.151 137.497C198.151 104.307 171.245 77.4006 138.054 77.4006C104.864 77.4006 77.9578 104.307 77.9578 137.497C77.9578 170.688 104.864 197.594 138.054 197.594Z" stroke="#D8F5FF" stroke-width="0.932703" stroke-miterlimit="10"/>
<path d="M138.054 172.061C157.143 172.061 172.618 156.586 172.618 137.497C172.618 118.408 157.143 102.933 138.054 102.933C118.965 102.933 103.49 118.408 103.49 137.497C103.49 156.586 118.965 172.061 138.054 172.061Z" stroke="#D8F5FF" stroke-width="0.932703" stroke-miterlimit="10"/>
</svg>
