<svg width="125" height="71" viewBox="0 0 125 71" fill="none" xmlns="http://www.w3.org/2000/svg">
<path d="M112.806 41.2722L113.218 40.2588L113.317 40.0077L123.684 14.179L123.908 13.6319L124.276 12.6006C124.276 12.6006 123.989 12.484 123.837 12.4212C95.1291 0.896936 65.0046 -1.68593 36.5751 3.34529L36.1805 3.37219L35.7949 3.47084C24.0554 5.61426 12.6118 9.04912 1.67948 13.6947C1.4194 13.8023 0.908203 14.0265 0.908203 14.0265L1.38352 15.0041L12.3248 40.6265L12.6477 41.3798L13.0782 42.3843L13.2486 42.7968L24.0643 68.1143L24.3244 68.7152L24.7459 69.7196L25.6697 69.3251C38.0639 64.0965 51.1307 61.4778 64.1975 61.4778C76.4571 61.4778 88.7078 63.7826 100.456 68.3923C100.555 68.4282 100.654 68.4731 100.752 68.5089L101.685 68.8766L102.097 67.8632L102.277 67.4058L112.617 41.6668L112.788 41.2363L112.806 41.2722Z" fill="#00EDFF" stroke="white" stroke-width="0.860956" stroke-miterlimit="10"/>
</svg>
