<svg width="32" height="32" viewBox="0 0 32 32" fill="none" xmlns="http://www.w3.org/2000/svg">
<path d="M26.1413 9.32644C26.0397 8.92928 25.7524 8.62962 25.4233 8.53718C24.8386 8.37417 22.0001 8.00001 16.0001 8.00001C10.0001 8.00001 7.16214 8.37432 6.57511 8.53765C6.24912 8.62832 5.96184 8.92792 5.85891 9.32644C5.71384 9.89232 5.33341 12.2613 5.33341 16C5.33341 19.7387 5.71384 22.1077 5.85931 22.6752C5.96045 23.0708 6.24779 23.3704 6.57545 23.4624C7.16213 23.6257 10.0001 24 16.0001 24C22.0001 24 24.8386 23.6259 25.425 23.4624C25.751 23.3717 26.0384 23.0721 26.1413 22.6736C26.2864 22.1077 26.6668 19.7333 26.6668 16C26.6668 12.2667 26.2864 9.89232 26.1413 9.32644ZM28.7244 8.66425C29.3334 11.04 29.3334 16 29.3334 16C29.3334 16 29.3334 20.96 28.7244 23.3357C28.385 24.6497 27.3948 25.6824 26.1396 26.0315C23.8616 26.6667 16.0001 26.6667 16.0001 26.6667C16.0001 26.6667 8.14327 26.6667 5.8606 26.0315C4.60072 25.6776 3.61049 24.6448 3.27576 23.3357C2.66675 20.96 2.66675 16 2.66675 16C2.66675 16 2.66675 11.04 3.27576 8.66425C3.61513 7.35032 4.60537 6.31758 5.8606 5.96849C8.14327 5.33334 16.0001 5.33334 16.0001 5.33334C16.0001 5.33334 23.8616 5.33334 26.1396 5.96849C27.3994 6.32244 28.3897 7.35516 28.7244 8.66425ZM13.3334 20.6667V11.3333L21.3334 16L13.3334 20.6667Z" fill="#32BCC5"/>
</svg>
